G04 ================== begin FILE IDENTIFICATION RECORD ==================*
G04 Layout Name:  C:/DATA/git/Cadence/modules/Zwave_switch/allegro/ZWAVE_SWITCH.brd*
G04 Film Name:    SM_TOP*
G04 File Format:  Gerber RS274X*
G04 File Origin:  Cadence Allegro 17.2-P019*
G04 Origin Date:  Fri Jun 02 13:23:12 2017*
G04 *
G04 Layer:  PIN/SOLDERMASK_TOP*
G04 Layer:  PACKAGE GEOMETRY/SOLDERMASK_TOP*
G04 Layer:  BOARD GEOMETRY/SOLDERMASK_TOP*
G04 *
G04 Offset:    (0.0000 0.0000)*
G04 Mirror:    No*
G04 Mode:      Positive*
G04 Rotation:  0*
G04 FullContactRelief:  No*
G04 UndefLineWidth:     0.0000*
G04 ================== end FILE IDENTIFICATION RECORD ====================*
%FSLAX25Y25*MOMM*%
%IR0*IPPOS*OFA0.00000B0.00000*MIA0B0*SFA1.00000B1.00000*%
%ADD14R,1.02X.74*%
%ADD18R,.74X1.02*%
%ADD21R,.6X.6*%
%ADD25R,1.1001X1.*%
%ADD23R,2.1X1.6*%
%ADD17R,2.1501X1.3*%
%ADD15R,1.3X2.1501*%
%ADD13R,2.35X1.1501*%
%ADD26R,1.1501X2.35*%
%ADD19C,3.5*%
%ADD11R,2.X2.*%
%ADD10R,2.35X3.4501*%
%ADD27R,3.4501X2.35*%
%ADD24R,3.5X3.5*%
%ADD20R,1.5999X2.35*%
%ADD16R,2.35X1.5999*%
%ADD22C,3.5999*%
%ADD12C,1.8999*%
G75*
%LPD*%
G75*
G36*
G01X270000Y-1290000D02*
Y-330000D01*
X600000Y0D01*
X870000D01*
Y-240000D01*
X840000Y-270000D01*
X690000D01*
X510000Y-450000D01*
Y-1290000D01*
X270000D01*
G37*
G54D10*
X-5490000Y-980000D03*
G54D20*
X-4460000Y1150000D03*
G54D11*
X-5770000Y-137000D03*
X-799000Y437000D03*
G54D12*
X-5770000Y625000D03*
Y371000D03*
Y117000D03*
Y1133000D03*
Y879000D03*
X-3514000Y444000D03*
Y952000D03*
Y1460000D03*
X-799000Y-71000D03*
G54D21*
X-4630000Y1860000D03*
G54D22*
X-280000Y-140000D03*
X-480000Y460000D03*
X-280000Y1060000D03*
X940000Y-140000D03*
Y1060000D03*
G54D13*
X-4899930Y-980060D03*
Y-1210060D03*
Y-750060D03*
G54D23*
X-500450Y1520000D03*
X-79550D03*
G54D14*
X-4660000Y-1555000D03*
Y-1405000D03*
X-5340000Y415000D03*
Y585000D03*
Y145000D03*
Y315000D03*
X-5370000Y1405000D03*
X-5220000D03*
X-4630000Y1335000D03*
Y1745000D03*
Y1595000D03*
X-5370000Y1575000D03*
X-5220000D03*
X-4630000Y1505000D03*
X-4400000Y-1555000D03*
Y-1405000D03*
X-4380000Y-1125000D03*
Y-1275000D03*
X-4530000Y-1555000D03*
Y-1405000D03*
X-3890000Y1525000D03*
Y1675000D03*
X-3750000Y1525000D03*
Y1675000D03*
X710000Y1425000D03*
Y1595000D03*
X1020000Y1445000D03*
X1190000D03*
X850000Y1425000D03*
X1020000Y1595000D03*
X1190000Y1615000D03*
X850000Y1595000D03*
G54D24*
X390000Y-1360000D03*
G54D15*
X-4635000Y-210000D03*
X-4785000D03*
X-4635000Y1140000D03*
X-4185000Y-210000D03*
X-4335000D03*
X-4485000D03*
G54D16*
X-5110000Y55000D03*
Y880000D03*
X-3860000Y55000D03*
Y880000D03*
G54D25*
X235000Y1475000D03*
X510000Y1380000D03*
Y1570000D03*
G54D26*
X649940Y1959930D03*
X1109940D03*
X879940D03*
G54D17*
X-5110000Y205000D03*
Y355000D03*
Y505000D03*
Y655000D03*
X-3860000D03*
Y505000D03*
Y355000D03*
Y205000D03*
G54D27*
X880000Y2550000D03*
G54D18*
X-4355000Y-970000D03*
X-4525000D03*
X-4355000Y1360000D03*
X-4525000D03*
X695000Y1720000D03*
X845000D03*
G54D19*
X-3860000Y-1360000D03*
X-3010000D03*
X-2160000D03*
X-1310000D03*
X-460000D03*
M02*
