G04 ================== begin FILE IDENTIFICATION RECORD ==================*
G04 Layout Name:  C:/DATA/GIT/CADENCE/MODULES/ZWAVE_SWITCH/allegro/ZWAVE_SWITCH.brd*
G04 Film Name:    BOTTOM*
G04 File Format:  Gerber RS274X*
G04 File Origin:  Cadence Allegro 17.2-P019*
G04 Origin Date:  Wed May 24 02:13:38 2017*
G04 *
G04 Layer:  ETCH/BOTTOM*
G04 Layer:  PIN/BOTTOM*
G04 Layer:  VIA CLASS/BOTTOM*
G04 *
G04 Offset:    (0.0000 0.0000)*
G04 Mirror:    No*
G04 Mode:      Positive*
G04 Rotation:  0*
G04 FullContactRelief:  No*
G04 UndefLineWidth:     0.0000*
G04 ================== end FILE IDENTIFICATION RECORD ====================*
%FSLAX25Y25*MOMM*%
%IR0*IPPOS*OFA0.00000B0.00000*MIA0B0*SFA1.00000B1.00000*%
%ADD11C,1.*%
%ADD16C,3.*%
%ADD14C,3.2*%
%ADD10C,3.5*%
%ADD15R,1.524X1.524*%
%ADD12C,1.5999*%
%ADD13R,1.5999X1.5999*%
%ADD17C,.3*%
%ADD22C,4.0004*%
%ADD19C,4.2004*%
%ADD20C,2.6004*%
%ADD18C,3.4544*%
%ADD21C,1.8544*%
G75*
%LPD*%
G75*
G36*
G01X-5652070Y-2362990D02*
G02X-5658460Y-2344930I-2J10160D01*
G03X-5972060Y-2024990I-141535J174933D01*
G02X-5989990Y-2018440I-7769J6548D01*
G01Y2768440D01*
G02X-5972060Y2774990I10161J2D01*
G03X-5654990Y3092060I172060J145010D01*
G02X-5648440Y3109990I6548J7769D01*
G01X-5420020D01*
Y1819980D01*
X590020D01*
Y3109990D01*
X1311170D01*
G02X1317170Y3091630I0J-10160D01*
G03X1629720Y2774590I132832J-181631D01*
G02X1647990Y2768480I8111J-6116D01*
G01Y-2016100D01*
G02X1630150Y-2022750I-10160J2D01*
G03X1318460Y-2344930I-170151J-147249D01*
G02X1312070Y-2362990I-6388J-7900D01*
G01X-5652070D01*
G37*
%LPC*%
G75*
G36*
G01X-719020Y-13000D02*
Y147000D01*
G02X-669000Y197020I50025J-5D01*
G01X-509000D01*
G02X-458980Y147000I-5J-50025D01*
G01Y-13000D01*
G02X-509000Y-63020I-50025J5D01*
G01X-669000D01*
G02X-719020Y-13000I5J50025D01*
G37*
G36*
G01X-2166220Y763800D02*
Y916200D01*
G02X-2116200Y966220I50020J0D01*
G01X-1963800D01*
G02X-1913780Y916200I0J-50020D01*
G01Y763800D01*
G02X-1963800Y713780I-50020J0D01*
G01X-2116200D01*
G02X-2166220Y763800I0J50020D01*
G37*
G36*
G01X-2128920Y-16200D02*
Y136200D01*
G02X-2116200Y148920I12720J0D01*
G01X-1963800D01*
G02X-1951080Y136200I0J-12720D01*
G01Y-16200D01*
G02X-1963800Y-28920I-12720J0D01*
G01X-2116200D01*
G02X-2128920Y-16200I0J12720D01*
G37*
G36*
G01X145430Y1467380D02*
X273070Y1595020D01*
X963070D01*
X979930Y1611880D01*
Y1730390D01*
X975580Y1731020D01*
G02X1089870Y1824480I14420J98978D01*
G01X1089740Y1822210D01*
X1109970Y1801980D01*
Y1558020D01*
X1016930Y1464980D01*
X326930D01*
X275470Y1413520D01*
Y1396040D01*
X277160Y1394520D01*
G02X145430Y1396000I-66711J-74521D01*
G01Y1467380D01*
G37*
G36*
G01X-4946930Y264980D02*
X-5435020Y753070D01*
Y1034000D01*
G02X-5304980I65020J76000D01*
G01Y806930D01*
X-4893070Y395020D01*
X-3626930D01*
X-3575020Y446930D01*
Y1394000D01*
G02X-3605010Y1501270I65018J76005D01*
G02X-3541270Y1565010I65010J-1270D01*
G02X-3479520Y1565260I31260J-95010D01*
G01X-3478760Y1565020D01*
X-2163070D01*
X-2013070Y1415020D01*
X-153070D01*
X56930Y1205020D01*
X1424000D01*
G02Y1074980I76000J-65020D01*
G01X3070D01*
X-206930Y1284980D01*
X-2066930D01*
X-2216930Y1434980D01*
X-3416310D01*
G02X-3444980Y1394000I-93687J35025D01*
G01Y393070D01*
X-3573070Y264980D01*
X-4946930D01*
G37*
G36*
G01X-5463930Y-241980D02*
X-5405020Y-183070D01*
Y69000D01*
G02X-5274980I65020J76000D01*
G01Y-236930D01*
X-5410070Y-372020D01*
X-5639980D01*
Y-387000D01*
G02X-5690000Y-437020I-50025J5D01*
G01X-5704980D01*
Y-441630D01*
X-5724980Y-461630D01*
Y-774980D01*
X-5703070D01*
X-5587790Y-890260D01*
X-5585520Y-890130D01*
G02X-5679870Y-984480I5520J-99870D01*
G01X-5679740Y-982210D01*
X-5756930Y-905020D01*
X-5786930D01*
X-5855020Y-836930D01*
Y-436940D01*
X-5859170Y-436170D01*
G02X-5900020Y-387000I9173J49175D01*
G01Y-227000D01*
G02X-5851180Y-177000I50021J-7D01*
G03X-5846220Y-171920I-120J5079D01*
G01Y-158370D01*
X-5848240Y-156840D01*
G02X-5846220Y52340I78240J103844D01*
G01Y95660D01*
G02Y306340I76220J105340D01*
G01Y349660D01*
G02Y560340I76220J105340D01*
G01Y603660D01*
G02Y814340I76220J105340D01*
G01Y879200D01*
X-5841840D01*
G03X-5834750Y896630I-4J10159D01*
G02X-5705250I64750J66370D01*
G03X-5698160Y879200I7094J-7271D01*
G01X-5693780D01*
Y814340D01*
G02Y603660I-76220J-105340D01*
G01Y560340D01*
G02Y349660I-76220J-105340D01*
G01Y306340D01*
G02Y95660I-76220J-105340D01*
G01Y52340D01*
G02X-5691760Y-156840I-76220J-105336D01*
G01X-5693780Y-158370D01*
Y-171920D01*
G03X-5688820Y-177000I5080J-1D01*
G02X-5639980Y-227000I-1181J-50007D01*
G01Y-241980D01*
X-5463930D01*
G37*
G36*
G01X-526150Y-1348280D02*
X-87850Y-909980D01*
X217150D01*
X399980Y-727150D01*
Y-312850D01*
X217150Y-130020D01*
X-190000D01*
G02Y270020I0J200020D01*
G01X382850D01*
X800020Y-147150D01*
Y-892850D01*
X382850Y-1310020D01*
X77850D01*
X-243280Y-1631150D01*
X-243640Y-1631850D01*
G02X-526850Y-1348640I-186360J96850D01*
G01X-526150Y-1348280D01*
G37*
G54D22*
X10000Y-530000D03*
Y670000D03*
X1230000Y-530000D03*
Y670000D03*
G54D19*
X-3870000Y-1535000D03*
X-2650000D03*
X-1650000D03*
X570000D03*
G54D20*
X-3304000Y582000D03*
Y1090000D03*
X-589000Y-441000D03*
G54D18*
X-4870000Y-1535000D03*
G54D21*
X-3304000Y74000D03*
%LPD*%
G75*
G54D10*
X-5800000Y-2170000D03*
Y2920000D03*
X1460000Y-2170000D03*
X1450000Y2910000D03*
G54D11*
X-5430000Y-2040000D03*
X-5610000Y-1890000D03*
X-5820000Y-1830000D03*
X-5880000Y-1650000D03*
Y-1440000D03*
Y-1200000D03*
Y-960000D03*
X-5580000Y-990000D03*
X-5880000Y1440000D03*
X-5670000Y1410000D03*
X-5370000Y1110000D03*
X-5880000Y2220000D03*
Y2040000D03*
Y1830000D03*
Y1650000D03*
X-5520000Y1530000D03*
X-5490000Y2160000D03*
Y1980000D03*
Y1770000D03*
X-5640000Y2640000D03*
X-5850000Y2610000D03*
X-5880000Y2430000D03*
X-5490000Y2970000D03*
Y2790000D03*
Y2580000D03*
Y2370000D03*
X-4620000Y-2250000D03*
X-4860000D03*
X-5100000D03*
X-5340000D03*
Y145000D03*
X-4830000Y1500000D03*
X-5250000Y1740000D03*
X-5040000D03*
X-4830000D03*
X-3900000Y-2250000D03*
X-4140000D03*
X-4350000D03*
X-4290000Y60000D03*
X-4470000Y1740000D03*
X-4440000Y1530000D03*
X-4260000Y1770000D03*
X-3210000Y-2250000D03*
X-3420000D03*
X-3660000D03*
X-3609930Y720000D03*
Y1250070D03*
X-3510000Y1470000D03*
X-2310000Y-2250000D03*
X-2550000D03*
X-2790000D03*
X-3000000D03*
X-1680000D03*
X-1890000D03*
X-2100000D03*
X-2040000Y840000D03*
X-960000Y-2250000D03*
X-1200000D03*
X-1440000D03*
X-60000D03*
X-300000D03*
X-510000D03*
X-720000D03*
X600000D03*
X390000D03*
X180000D03*
X210450Y1320000D03*
X690000Y1950000D03*
X660000Y2820000D03*
X640000Y2580000D03*
X660000Y3030000D03*
X1050000Y-2250000D03*
X840000D03*
X870000Y1355010D03*
X1500000Y1140000D03*
X990000Y1830000D03*
X870000Y3030000D03*
X1080000D03*
X1560000Y-1680000D03*
Y-1860000D03*
Y-930000D03*
Y-1110000D03*
Y-1320000D03*
Y-1500000D03*
Y-120000D03*
Y-330000D03*
Y-540000D03*
Y-720000D03*
Y660000D03*
Y450000D03*
Y270000D03*
Y60000D03*
Y1440000D03*
Y840000D03*
Y2190000D03*
Y2010000D03*
Y1830000D03*
Y1620000D03*
Y2580000D03*
Y2400000D03*
G54D12*
X-5770000Y-53000D03*
Y709000D03*
Y455000D03*
Y201000D03*
Y963000D03*
X-3304000Y74000D03*
Y582000D03*
Y1090000D03*
X-589000Y-441000D03*
G54D13*
X-5770000Y-307000D03*
X-589000Y67000D03*
G54D14*
X-4870000Y-1535000D03*
X-3870000D03*
X-2650000D03*
X-1650000D03*
X-430000D03*
X570000D03*
G54D15*
X-2040000Y60000D03*
Y840000D03*
G54D16*
G01X-430000Y-1535000D02*
X-5000Y-1110000D01*
X300000D01*
X600000Y-810000D01*
Y-230000D01*
X300000Y70000D01*
X-190000D01*
D03*
X10000Y-530000D03*
Y670000D03*
X1230000Y-530000D03*
Y670000D03*
G54D17*
G01X-5770000Y-307000D02*
Y-414700D01*
X-5790000Y-434700D01*
Y-810000D01*
X-5760000Y-840000D01*
X-5730000D01*
X-5580000Y-990000D01*
G01X-5770000Y-307000D02*
X-5437000D01*
X-5340000Y-210000D01*
Y145000D01*
G01X-4290000Y60000D02*
X-4759300D01*
X-5662300Y963000D01*
G01D02*
X-5770000D01*
G01D02*
Y1060800D01*
G01X-5867800Y963000D02*
X-5770000D01*
G01X-4870000Y-1712800D02*
Y-1535000D01*
G01D02*
Y-1357200D01*
G01X-5047800Y-1535000D02*
X-4870000D01*
G01D02*
X-4692200D01*
G01X-3510000Y1470000D02*
Y420000D01*
X-3600000Y330000D01*
X-4920000D01*
X-5370000Y780000D01*
Y1110000D01*
G01X-3411700Y74000D02*
X-3425700Y60000D01*
X-4290000D01*
G01X-3304000Y74000D02*
X-3411700D01*
G01X-3304000D02*
X-2157900D01*
G01X-3304000Y-23800D02*
Y74000D01*
G01D02*
Y171800D01*
G01X-3609930Y720000D02*
Y1250070D01*
G01X1500000Y1140000D02*
X30000D01*
X-180000Y1350000D01*
X-2040000D01*
X-2190000Y1500000D01*
X-3540000D01*
X-3510000Y1470000D01*
G01X-2040000Y60000D02*
X-1170000D01*
G01X-2157900Y74000D02*
X-2143900Y60000D01*
G01D02*
X-2040000D01*
G01Y-34000D02*
Y60000D01*
G01D02*
Y154000D01*
G01X-1170000Y60000D02*
X-960000Y270000D01*
Y1050000D01*
X-930000Y1080000D01*
G01D02*
X1425640D01*
X1460640Y1045000D01*
G01X210450Y1320000D02*
Y1440450D01*
X300000Y1530000D01*
X990000D01*
X1044950Y1584950D01*
Y1775050D01*
X990000Y1830000D01*
G01X1410000Y1800000D02*
Y1410000D01*
X1355010Y1355010D01*
X870000D01*
G01X690000Y1950000D02*
Y2250000D01*
X720000Y2280000D01*
X1350000D01*
X1410000Y2220000D01*
Y1800000D01*
G01X1460640Y1045000D02*
X1539360D01*
X1595000Y1100640D01*
Y1615000D01*
X1410000Y1800000D01*
M02*
