G04 ================== begin FILE IDENTIFICATION RECORD ==================*
G04 Layout Name:  C:/DATA/GIT/CADENCE/MODULES/ZWAVE_SWITCH/allegro/ZWAVE_SWITCH.brd*
G04 Film Name:    SM_BOT*
G04 File Format:  Gerber RS274X*
G04 File Origin:  Cadence Allegro 17.2-P019*
G04 Origin Date:  Wed May 24 02:13:38 2017*
G04 *
G04 Layer:  VIA CLASS/SOLDERMASK_BOTTOM*
G04 Layer:  PIN/SOLDERMASK_BOTTOM*
G04 Layer:  PACKAGE GEOMETRY/SOLDERMASK_BOTTOM*
G04 Layer:  BOARD GEOMETRY/SOLDERMASK_BOTTOM*
G04 Layer:  BOARD GEOMETRY/OUTLINE*
G04 Layer:  BOARD GEOMETRY/DESIGN_OUTLINE*
G04 *
G04 Offset:    (0.0000 0.0000)*
G04 Mirror:    No*
G04 Mode:      Positive*
G04 Rotation:  0*
G04 FullContactRelief:  No*
G04 UndefLineWidth:     0.0000*
G04 ================== end FILE IDENTIFICATION RECORD ====================*
%FSLAX25Y25*MOMM*%
%IR0*IPPOS*OFA0.00000B0.00000*MIA0B0*SFA1.00000B1.00000*%
%ADD10C,1.5*%
%ADD13C,3.7*%
%ADD12R,1.8001X1.8001*%
%ADD14R,1.651X1.651*%
%ADD15C,3.5999*%
%ADD11C,1.8999*%
G75*
%LPD*%
G75*
G36*
G01X-50000Y-980000D02*
X260000D01*
X480000Y-760000D01*
Y-280000D01*
X250000Y-50000D01*
X-120000D01*
X-130000Y-40000D01*
X-80000Y10000D01*
X-70000D01*
Y100000D01*
X-120000Y150000D01*
Y180000D01*
X-100000Y200000D01*
X340000D01*
X720000Y-180000D01*
Y-860000D01*
X350000Y-1230000D01*
X50000D01*
X-310000Y-1590000D01*
X-330000Y-1570000D01*
Y-1470000D01*
X-370000Y-1430000D01*
X-440000D01*
Y-1370000D01*
X-50000Y-980000D01*
G37*
G54D10*
X-5430000Y-2040000D03*
X-5610000Y-1890000D03*
X-5820000Y-1830000D03*
X-5880000Y-1650000D03*
Y-1440000D03*
Y-1200000D03*
Y-960000D03*
X-5580000Y-990000D03*
X-5880000Y1440000D03*
X-5670000Y1410000D03*
X-5370000Y1110000D03*
X-5880000Y2220000D03*
Y2040000D03*
Y1830000D03*
Y1650000D03*
X-5520000Y1530000D03*
X-5490000Y2160000D03*
Y1980000D03*
Y1770000D03*
X-5640000Y2640000D03*
X-5850000Y2610000D03*
X-5880000Y2430000D03*
X-5490000Y2970000D03*
Y2790000D03*
Y2580000D03*
Y2370000D03*
X-4620000Y-2250000D03*
X-4860000D03*
X-5100000D03*
X-5340000D03*
Y145000D03*
X-4830000Y1500000D03*
X-5250000Y1740000D03*
X-5040000D03*
X-4830000D03*
X-3900000Y-2250000D03*
X-4140000D03*
X-4350000D03*
X-4290000Y60000D03*
X-4470000Y1740000D03*
X-4440000Y1530000D03*
X-4260000Y1770000D03*
X-3210000Y-2250000D03*
X-3420000D03*
X-3660000D03*
X-3609930Y720000D03*
Y1250070D03*
X-3510000Y1470000D03*
X-2310000Y-2250000D03*
X-2550000D03*
X-2790000D03*
X-3000000D03*
X-1680000D03*
X-1890000D03*
X-2100000D03*
X-2040000Y840000D03*
X-960000Y-2250000D03*
X-1200000D03*
X-1440000D03*
X-60000D03*
X-300000D03*
X-510000D03*
X-720000D03*
X600000D03*
X390000D03*
X180000D03*
X210450Y1320000D03*
X690000Y1950000D03*
X660000Y2820000D03*
X640000Y2580000D03*
X660000Y3030000D03*
X1050000Y-2250000D03*
X840000D03*
X870000Y1355010D03*
X1500000Y1140000D03*
X990000Y1830000D03*
X870000Y3030000D03*
X1080000D03*
X1560000Y-1680000D03*
Y-1860000D03*
Y-930000D03*
Y-1110000D03*
Y-1320000D03*
Y-1500000D03*
Y-120000D03*
Y-330000D03*
Y-540000D03*
Y-720000D03*
Y660000D03*
Y450000D03*
Y270000D03*
Y60000D03*
Y1440000D03*
Y840000D03*
Y2190000D03*
Y2010000D03*
Y1830000D03*
Y1620000D03*
Y2580000D03*
Y2400000D03*
G54D11*
X-5770000Y-53000D03*
Y709000D03*
Y455000D03*
Y201000D03*
Y963000D03*
X-3304000Y74000D03*
Y582000D03*
Y1090000D03*
X-589000Y-441000D03*
G54D12*
X-5770000Y-307000D03*
X-589000Y67000D03*
G54D13*
X-4870000Y-1535000D03*
X-3870000D03*
X-2650000D03*
X-1650000D03*
X-430000D03*
X570000D03*
G54D14*
X-2040000Y60000D03*
Y840000D03*
G54D15*
X-190000Y70000D03*
X10000Y-530000D03*
Y670000D03*
X1230000Y-530000D03*
Y670000D03*
M02*
