G04 ================== begin FILE IDENTIFICATION RECORD ==================*
G04 Layout Name:  C:/DATA/GIT/CADENCE/MODULES/ZWAVE_SWITCH/allegro/ZWAVE_SWITCH.brd*
G04 Film Name:    TOP*
G04 File Format:  Gerber RS274X*
G04 File Origin:  Cadence Allegro 17.2-P019*
G04 Origin Date:  Wed May 24 02:13:38 2017*
G04 *
G04 Layer:  ETCH/TOP*
G04 Layer:  PIN/TOP*
G04 Layer:  VIA CLASS/TOP*
G04 *
G04 Offset:    (0.0000 0.0000)*
G04 Mirror:    No*
G04 Mode:      Positive*
G04 Rotation:  0*
G04 FullContactRelief:  No*
G04 UndefLineWidth:     0.0000*
G04 ================== end FILE IDENTIFICATION RECORD ====================*
%FSLAX25Y25*MOMM*%
%IR0*IPPOS*OFA0.00000B0.00000*MIA0B0*SFA1.00000B1.00000*%
%ADD19R,1.02X.74*%
%ADD12R,.74X1.02*%
%ADD23R,2.1501X.95*%
%ADD27R,.95X2.1501*%
%ADD22R,.3X.3*%
%ADD25R,2.1X1.6*%
%ADD20R,1.4X2.1501*%
%ADD17R,2.1501X1.4*%
%ADD11C,1.*%
%ADD24C,3.*%
%ADD18R,1.95X1.1001*%
%ADD16R,1.1001X1.95*%
%ADD15C,3.2*%
%ADD10C,3.5*%
%ADD21R,2.1501X3.2499*%
%ADD28R,3.2499X2.1501*%
%ADD13C,1.5999*%
%ADD26R,.8999X.8001*%
%ADD14R,1.5999X1.5999*%
%ADD29C,.3*%
%ADD34C,4.0004*%
%ADD33C,4.2004*%
%ADD32C,2.6004*%
%ADD30C,3.4544*%
%ADD31C,1.8544*%
G75*
%LPD*%
G75*
G36*
G01X-5652070Y-2362990D02*
G02X-5658460Y-2344930I-2J10160D01*
G03X-5972060Y-2024990I-141535J174933D01*
G02X-5989990Y-2018440I-7769J6548D01*
G01Y-311190D01*
G02X-5972650Y-304010I10158J-3D01*
G01X-5915800Y-360850D01*
X-5940020Y-385070D01*
Y-507560D01*
G03X-5962020Y-549000I28029J-41440D01*
G01Y-651000D01*
G03X-5912000Y-701020I50020J0D01*
G01X-5770020D01*
Y-1581930D01*
X-5426930Y-1925020D01*
X-3933070D01*
X-3804980Y-1796930D01*
Y-1734700D01*
G03X-3670300Y-1600020I-65020J199700D01*
G01X-3655370D01*
X-3534980Y-1479630D01*
Y-3080D01*
X-3638080Y100020D01*
X-3713340D01*
X-3714390Y103710D01*
G03X-3716650Y110000I-48100J-13731D01*
G03X-3714390Y116290I-45840J20021D01*
G01X-3713340Y119980D01*
X-3598070D01*
X-3483070Y234980D01*
X-603070D01*
X-474980Y363070D01*
Y1413070D01*
X-303070Y1584980D01*
X-191440D01*
G02X-184250Y1567640I3J-10160D01*
G01X-310470Y1441420D01*
Y1245100D01*
G02X-315540Y1240020I-5080J0D01*
G03X-365470Y1190000I90J-50020D01*
G01Y1030000D01*
G03X-315540Y979980I50020J0D01*
G02X-310470Y974900I-10J-5080D01*
G01Y849020D01*
X-183220Y721770D01*
X-183930Y718980D01*
G03X-38980Y863930I193930J-48980D01*
G01X-41770Y863220D01*
X-110430Y931880D01*
Y974900D01*
G02X-105360Y979980I5080J0D01*
G03X-55430Y1030000I-90J50020D01*
G01Y1190000D01*
G03X-105360Y1240020I-50020J0D01*
G02X-110430Y1245100I10J5080D01*
G01Y1358560D01*
X-69010Y1399980D01*
X125220D01*
G02X133080Y1383380I-1J-10161D01*
G03Y1256620I77370J-63380D01*
G02X125220Y1240020I-7861J-6439D01*
G01X105450D01*
G03X55430Y1190000I0J-50020D01*
G01Y1030000D01*
G03X105360Y979980I50020J0D01*
G02X110430Y974900I-10J-5080D01*
G01Y918120D01*
X319980Y708570D01*
Y-318570D01*
X208570Y-429980D01*
X183240D01*
X181760Y-427500D01*
G03X183220Y-630020I-171760J-102504D01*
G01X291430D01*
X520020Y-401430D01*
Y791430D01*
X339860Y971590D01*
G02X341710Y987430I7179J7190D01*
G03X364820Y1021960I-26259J42573D01*
G02X379090Y1029560I10028J-1633D01*
G03X400000Y1024980I20909J45438D01*
G01X401400D01*
X402430Y1024490D01*
G03X487570I42570J90510D01*
G01X488600Y1024980D01*
X490000D01*
G03X495370Y1025260I84J50020D01*
G02X506620Y1015160I1092J-10099D01*
G01Y989500D01*
X624980D01*
Y980000D01*
G03X675000Y929980I50020J0D01*
G01X765000D01*
G03X803290Y947820I-3J50017D01*
G02X817470Y949170I7777J-6539D01*
G03X849000Y937980I31530J38826D01*
G01X951000D01*
G03X975000Y944110I6J50022D01*
G03X999000Y937980I23994J43892D01*
G01X1101000D01*
G03X1133890Y950320I-6J50018D01*
G03X1149000Y947980I15120J47678D01*
G01X1251000D01*
G03X1266110Y950320I-10J50018D01*
G03X1299000Y937980I32896J37678D01*
G01X1401000D01*
G03X1451020Y988000I0J50020D01*
G01Y1036890D01*
G02X1464760Y1046390I10159J-6D01*
G03X1494480Y1239870I35235J93610D01*
G01X1492210Y1239740D01*
X1471930Y1260020D01*
X1442440D01*
G03X1401000Y1282020I-41440J-28029D01*
G01X1299000D01*
G03X1266110Y1269680I6J-50018D01*
G03X1251000Y1272020I-15120J-47678D01*
G01X1149000D01*
G03X1133890Y1269680I10J-50018D01*
G03X1118340Y1278920I-32905J-37671D01*
G01X1115020Y1280150D01*
Y1496930D01*
X984320Y1627640D01*
G02X991500Y1644980I7183J7182D01*
G01X1136870D01*
X1204960Y1713070D01*
Y1865460D01*
X1207960Y1866810D01*
G03X1237460Y1912420I-20519J45617D01*
G01Y2127440D01*
G03X1202810Y2175040I-50022J-1D01*
G01X1199290Y2176170D01*
Y2184950D01*
X1200100D01*
Y2445050D01*
X1109720D01*
G02X1103440Y2463190I3J10158D01*
G03X1122520Y2502500I-30943J39304D01*
G01Y2717500D01*
G03X1072500Y2767520I-50020J0D01*
G01X747500D01*
G03X697480Y2717500I0J-50020D01*
G01Y2502500D01*
G03X716560Y2463190I50023J-6D01*
G02X710280Y2445050I-6283J-7982D01*
G01X619910D01*
Y2184950D01*
X825300D01*
G02X831570Y2166800I1J-10158D01*
G03X812480Y2129810I30875J-39355D01*
G01X812250Y2124970D01*
X740670D01*
X740020Y2129300D01*
G03X727440Y2140160I-12580J-1856D01*
G01X632440D01*
G03X619720Y2127440I0J-12720D01*
G01Y1912420D01*
G03X632440Y1899700I12720J0D01*
G01X652490D01*
X653810Y1898770D01*
G03X727470Y1899710I36182J51230D01*
G03X740020Y1910550I-29J12718D01*
G01X740670Y1914880D01*
X812250D01*
X812480Y1910040D01*
G03X817430Y1890600I49963J2372D01*
G03X798120Y1854720I30574J-39591D01*
G01X797770Y1850020D01*
X785300D01*
X784380Y1853930D01*
G03X772000Y1863720I-12380J-2933D01*
G01X698000D01*
G03X685280Y1851000I0J-12720D01*
G01Y1769020D01*
X-2775370D01*
X-2826220Y1718170D01*
X-2883010Y1774960D01*
X-3455460D01*
X-3456810Y1777960D01*
G03X-3502420Y1807460I-45617J-20519D01*
G01X-3717440D01*
G03X-3765040Y1772810I1J-50022D01*
G01X-3766170Y1769290D01*
X-3774950D01*
Y1770100D01*
X-4035050D01*
Y1679720D01*
G02X-4053190Y1673440I-10158J3D01*
G03X-4092500Y1692520I-39304J-30943D01*
G01X-4307500D01*
G03X-4357520Y1642500I0J-50020D01*
G01Y1317500D01*
G03X-4307500Y1267480I50020J0D01*
G01X-4092500D01*
G03X-4053190Y1286560I6J50023D01*
G02X-4035050Y1280280I7982J-6283D01*
G01Y1189910D01*
X-3774950D01*
Y1395300D01*
G02X-3756800Y1401570I10158J1D01*
G03X-3719810Y1382480I39355J30875D01*
G02X-3714970Y1377400I-241J-5075D01*
G01Y1310670D01*
X-3719300Y1310020D01*
G03X-3730160Y1297440I1856J-12580D01*
G01Y1202440D01*
G03X-3717440Y1189720I12720J0D01*
G01X-3627020D01*
X-3626370Y1189540D01*
G03X-3593490I16440J60530D01*
G01X-3592840Y1189720D01*
X-3502420D01*
G03X-3489700Y1202440I0J12720D01*
G01Y1297440D01*
G03X-3500550Y1310020I-12718J0D01*
G01X-3504880Y1310670D01*
Y1370110D01*
G03X-3412120Y1449420I-5120J99889D01*
G01X-3411810Y1450900D01*
X-3400770Y1461940D01*
X-3397740Y1460870D01*
G03X-3384720Y1458120I16755J47128D01*
G02X-3380020Y1453050I-380J-5066D01*
G01Y1445300D01*
X-3383930Y1444380D01*
G03X-3393720Y1432000I2933J-12380D01*
G01Y1358000D01*
G03X-3381000Y1345280I12720J0D01*
G01X-3279000D01*
G03X-3266280Y1358000I0J12720D01*
G01Y1432000D01*
G03X-3276070Y1444380I-12723J0D01*
G01X-3279980Y1445300D01*
Y1453050D01*
G02X-3275280Y1458120I5080J4D01*
G03X-3255000Y1464110I-3709J49883D01*
G03X-3234720Y1458120I23989J43893D01*
G02X-3230020Y1453050I-380J-5066D01*
G01Y1445300D01*
X-3233930Y1444380D01*
G03X-3243720Y1432000I2933J-12380D01*
G01Y1358000D01*
G03X-3231000Y1345280I12720J0D01*
G01X-3129000D01*
G03X-3116280Y1358000I0J12720D01*
G01Y1432000D01*
G03X-3126070Y1444380I-12723J0D01*
G01X-3129980Y1445300D01*
Y1453050D01*
G02X-3125280Y1458120I5080J4D01*
G03X-3105000Y1464110I-3709J49883D01*
G03X-3084720Y1458120I23989J43893D01*
G02X-3080020Y1453050I-380J-5066D01*
G01Y1445300D01*
X-3083930Y1444380D01*
G03X-3093720Y1432000I2933J-12380D01*
G01Y1358000D01*
G03X-3081000Y1345280I12720J0D01*
G01X-2979000D01*
G03X-2966280Y1358000I0J12720D01*
G01Y1432000D01*
G03X-2976070Y1444380I-12723J0D01*
G01X-2979980Y1445300D01*
Y1453050D01*
G02X-2975280Y1458120I5080J4D01*
G03X-2928980Y1508000I-3718J49880D01*
G01Y1582000D01*
G03X-2961660Y1628920I-50022J0D01*
G01X-2964980Y1630150D01*
Y1644920D01*
X-2936870D01*
X-2891240Y1599290D01*
Y1166930D01*
X-2903150Y1155020D01*
X-3191410D01*
G03Y1024980I-112590J-65020D01*
G01X-2849290D01*
X-2761200Y1113070D01*
Y1599290D01*
X-2721510Y1638980D01*
X-457500D01*
G02X-450320Y1621640I-3J-10158D01*
G01X-605020Y1466930D01*
Y416930D01*
X-656930Y365020D01*
X-3536930D01*
X-3651930Y250020D01*
X-3713340D01*
X-3714390Y253710D01*
G03X-3716650Y260000I-48100J-13731D01*
G03X-3712480Y280000I-45850J19994D01*
G01Y390000D01*
G03X-3716650Y410000I-50020J6D01*
G03X-3712480Y430000I-45850J19994D01*
G01Y540000D01*
G03X-3762500Y590020I-50020J0D01*
G01X-3957500D01*
G03X-4007520Y540000I0J-50020D01*
G01Y430000D01*
G03X-4003350Y410000I50020J-6D01*
G03X-4007520Y390000I45850J-19994D01*
G01Y280000D01*
G03X-4003350Y260000I50020J-6D01*
G03X-4007520Y240000I45850J-19994D01*
G01Y130000D01*
G03X-4003350Y110000I50020J-6D01*
G03X-4007520Y90000I45850J-19994D01*
G01Y-20000D01*
G03X-3980220Y-64560I50018J1D01*
G01Y-185000D01*
G03X-3967500Y-197720I12720J0D01*
G01X-3752500D01*
G03X-3739780Y-185000I0J12720D01*
G01Y-64560D01*
G03X-3714390Y-33710I-22712J44565D01*
G01X-3713340Y-30020D01*
X-3691940D01*
X-3665020Y-56940D01*
Y-624980D01*
X-3679850D01*
X-3681080Y-621660D01*
G03X-3728000Y-588980I-46920J-17342D01*
G01X-3802000D01*
G03X-3851880Y-635280I0J-50018D01*
G01X-3852230Y-639980D01*
X-3864700D01*
X-3865620Y-636070D01*
G03X-3878000Y-626280I-12380J-2933D01*
G01X-3952000D01*
G03X-3964720Y-639000I0J-12720D01*
G01Y-741000D01*
G03X-3952000Y-753720I12720J0D01*
G01X-3878000D01*
G03X-3865620Y-743930I0J12723D01*
G01X-3864700Y-740020D01*
X-3852230D01*
X-3851880Y-744720D01*
G03X-3802000Y-791020I49880J3718D01*
G01X-3728000D01*
G03X-3681080Y-758340I0J50022D01*
G01X-3679850Y-755020D01*
X-3665020D01*
Y-1425770D01*
X-3671850Y-1432590D01*
G02X-3687840Y-1430470I-7183J7182D01*
G03X-3938440Y-1733550I-182159J-104526D01*
G01X-3935020Y-1734730D01*
Y-1743070D01*
X-3986930Y-1794980D01*
X-5373070D01*
X-5639980Y-1528070D01*
Y-1088270D01*
G02X-5625230Y-1079210I10159J-3D01*
G03X-5504000Y-1055020I45228J89210D01*
G01X-4233070D01*
X-4119980Y-941930D01*
Y-782440D01*
G03X-4098120Y-744720I-28023J41434D01*
G01X-4097770Y-740020D01*
X-4085300D01*
X-4084380Y-743930D01*
G03X-4072000Y-753720I12380J2933D01*
G01X-3998000D01*
G03X-3985280Y-741000I0J12720D01*
G01Y-639000D01*
G03X-3989010Y-630000I-12723J0D01*
G03X-3985280Y-621000I-8993J9000D01*
G01Y-519000D01*
G03X-3998000Y-506280I-12720J0D01*
G01X-4072000D01*
G03X-4072430Y-506290I81J-12718D01*
G02X-4082430Y-492990I-340J10154D01*
G03X-4079980Y-477500I-47569J15463D01*
G01Y-282500D01*
G03X-4130000Y-232480I-50020J0D01*
G01X-4840000D01*
G03X-4890020Y-282500I0J-50020D01*
G01Y-474980D01*
X-5394980D01*
Y-112020D01*
X-5289000D01*
G03X-5248590Y-91480I0J50021D01*
G02X-5230220Y-97470I8209J-5989D01*
G01Y-185000D01*
G03X-5217500Y-197720I12720J0D01*
G01X-5002500D01*
G03X-4989780Y-185000I0J12720D01*
G01Y-64560D01*
G03X-4962480Y-20000I-22718J44561D01*
G01Y90000D01*
G03X-4966650Y110000I-50020J6D01*
G03X-4962480Y130000I-45850J19994D01*
G01Y240000D01*
G03X-4966650Y260000I-50020J6D01*
G03X-4964390Y266290I-45840J20021D01*
G01X-4963340Y269980D01*
X-4888070D01*
X-4824980Y333070D01*
Y658500D01*
G02X-4807640Y665680I10158J-3D01*
G01X-4796930Y654980D01*
X-4293070D01*
X-4173070Y774980D01*
X-3980220D01*
Y640000D01*
G03X-3967500Y627280I12720J0D01*
G01X-3752500D01*
G03X-3739780Y640000I0J12720D01*
G01Y774980D01*
X-2116000D01*
G03Y905020I76000J65020D01*
G01X-4226930D01*
X-4346930Y785020D01*
X-4743070D01*
X-4764980Y806930D01*
Y1286930D01*
X-4948070Y1470020D01*
X-5127560D01*
G03X-5169000Y1492020I-41440J-28029D01*
G01X-5271000D01*
G03X-5295000Y1485890I-6J-50022D01*
G03X-5319000Y1492020I-23994J-43892D01*
G01X-5421000D01*
G03X-5471020Y1442000I0J-50020D01*
G01Y1368000D01*
G03X-5451170Y1328100I50026J0D01*
G02Y1311900I-6129J-8100D01*
G03X-5462440Y1300020I30166J-39903D01*
G01X-5901930D01*
X-5972650Y1229310D01*
G02X-5989990Y1236490I-7182J7183D01*
G01Y2768440D01*
G02X-5972060Y2774990I10161J2D01*
G03X-5654990Y3092060I172060J145010D01*
G02X-5648440Y3109990I6548J7769D01*
G01X-5420020D01*
Y1819980D01*
X-4695020D01*
Y1660150D01*
X-4698340Y1658920D01*
G03X-4731020Y1612000I17342J-46920D01*
G01Y1388000D01*
G03X-4730380Y1380000I50022J-24D01*
G03X-4731020Y1372000I49382J-7976D01*
G01Y1298000D01*
G03X-4711170Y1258100I50026J0D01*
G02Y1241900I-6129J-8100D01*
G03X-4731020Y1202000I30176J-39900D01*
G01Y1128000D01*
G03X-4724650Y1103580I50018J7D01*
G03X-4740020Y1067500I34648J-36074D01*
G01Y872500D01*
G03X-4690000Y822480I50020J0D01*
G01X-4580000D01*
G03X-4532660Y856340I3J50019D01*
G01X-4531480Y859780D01*
X-4390000D01*
G03X-4377280Y872500I0J12720D01*
G01Y1087500D01*
G03X-4390000Y1100220I-12720J0D01*
G01X-4435060D01*
G02X-4444000Y1115220I-2J10163D01*
G03X-4438120Y1135280I-43999J23789D01*
G01X-4437770Y1139980D01*
X-4405300D01*
X-4404380Y1136070D01*
G03X-4392000Y1126280I12380J2933D01*
G01X-4318000D01*
G03X-4305280Y1139000I0J12720D01*
G01Y1241000D01*
G03X-4318000Y1253720I-12720J0D01*
G01X-4392000D01*
G03X-4404380Y1243930I0J-12723D01*
G01X-4405300Y1240020D01*
X-4437770D01*
X-4438120Y1244720D01*
G03X-4488000Y1291020I-49880J-3718D01*
G01X-4529010D01*
Y1296280D01*
G03X-4528980Y1298000I-49990J1732D01*
G01Y1372000D01*
G03X-4529620Y1380000I-50022J24D01*
G03X-4528980Y1388000I-49382J7976D01*
G01Y1612000D01*
G03X-4561660Y1658920I-50022J0D01*
G01X-4564980Y1660150D01*
Y1819980D01*
X590020D01*
Y3109990D01*
X1311170D01*
G02X1317170Y3091630I0J-10160D01*
G03X1629720Y2774590I132832J-181631D01*
G02X1647990Y2768480I8111J-6116D01*
G01Y-2016100D01*
G02X1630150Y-2022750I-10160J2D01*
G03X1318460Y-2344930I-170151J-147249D01*
G02X1312070Y-2362990I-6388J-7900D01*
G01X-5652070D01*
G37*
G36*
G01X-5274980Y550020D02*
Y705930D01*
X-5343070Y774020D01*
X-5657410D01*
G03X-5693780Y814340I-112602J-65007D01*
G01Y879200D01*
X-5698160D01*
G02X-5705250Y896630I4J10159D01*
G03X-5834750I-64750J66370D01*
G02X-5841840Y879200I-7094J-7271D01*
G01X-5846220D01*
Y814340D01*
G03X-5857950Y804760I76241J-105322D01*
G02X-5874980Y812240I-6870J7485D01*
G01Y1143070D01*
X-5848070Y1169980D01*
X-5462440D01*
G03X-5455550Y1161830I41427J28035D01*
G03X-5273220Y1135250I85547J-51827D01*
G02X-5263390Y1147980I9829J2570D01*
G01X-5169000D01*
G03X-5131430Y1164980I0J50015D01*
G01X-4955020D01*
Y577190D01*
G02X-4973170Y570910I-10160J-5D01*
G03X-5012500Y590020I-39330J-30917D01*
G01X-5207500D01*
G03X-5255610Y553710I0J-50027D01*
G01X-5256660Y550020D01*
X-5274980D01*
G37*
G36*
G01X-4615000Y1875000D02*
Y2875000D01*
X485000D01*
Y3025000D01*
X-5265000D01*
Y1875000D01*
X-5115000D01*
Y2875000D01*
X-4645000D01*
Y1875000D01*
X-4615000D01*
G37*
G36*
G01X813240Y1096970D02*
G02X799060Y1096640I-7259J7107D01*
G03X765000Y1110020I-34052J-36640D01*
G01X675000D01*
G03X663860Y1108770I-28J-50019D01*
G02X651440Y1118670I-2261J9904D01*
G01Y1241000D01*
X545020D01*
Y1441430D01*
X418810Y1567640D01*
G02X426000Y1584980I7187J7180D01*
G01X843070D01*
X984980Y1443070D01*
Y1280150D01*
X981660Y1278920D01*
G03X951660Y1248160I17339J-46920D01*
G01X950490Y1244720D01*
X849000D01*
G03X836280Y1232000I0J-12720D01*
G01Y1158000D01*
G03X846070Y1145620I12723J0D01*
G01X849980Y1144700D01*
Y1116950D01*
G02X845280Y1111880I-5080J-4D01*
G03X813240Y1096970I3723J-49880D01*
G37*
%LPC*%
G75*
G36*
G01X1371440Y528560D02*
X998210Y155340D01*
Y-1389660D01*
X756720Y-1631150D01*
X756360Y-1631850D01*
G02X473150Y-1348640I-186360J96850D01*
G01X473850Y-1348280D01*
X598170Y-1223960D01*
Y321040D01*
X1088560Y811440D01*
G02X1371440Y528560I141440J-141440D01*
G37*
G36*
G01X-1549980Y-881430D02*
Y-1350330D01*
G02X-1750020I-100020J-184670D01*
G01Y-798570D01*
X-1292430Y-340980D01*
X-672070D01*
G02Y-541020I83070J-100020D01*
G01X-1209570D01*
X-1549980Y-881430D01*
G37*
G36*
G01X-2750020Y-208570D02*
X-2374430Y167020D01*
X-714830D01*
G02X-669000Y197020I45840J-20021D01*
G01X-509000D01*
G02X-458980Y147000I-5J-50025D01*
G01Y-13000D01*
G02X-509000Y-63020I-50025J5D01*
G01X-669000D01*
G02X-714830Y-33020I10J50021D01*
G01X-2291570D01*
X-2549980Y-291430D01*
Y-1350330D01*
G02X-2750020I-100020J-184670D01*
G01Y-208570D01*
G37*
G36*
G01X-5230220Y640000D02*
Y780000D01*
G02X-5217500Y792720I12720J0D01*
G01X-5002500D01*
G02X-4989780Y780000I0J-12720D01*
G01Y640000D01*
G02X-5002500Y627280I-12720J0D01*
G01X-5217500D01*
G02X-5230220Y640000I0J12720D01*
G37*
G36*
G01X662280Y1170000D02*
Y1250000D01*
G02X675000Y1262720I12720J0D01*
G01X765000D01*
G02X777720Y1250000I0J-12720D01*
G01Y1170000D01*
G02X765000Y1157280I-12720J0D01*
G01X675000D01*
G02X662280Y1170000I0J12720D01*
G37*
G54D34*
X-190000Y70000D03*
X1230000Y-530000D03*
G54D33*
X-430000Y-1535000D03*
G54D32*
X-3304000Y582000D03*
G54D30*
X-4870000Y-1535000D03*
G54D31*
X-3304000Y74000D03*
%LPD*%
G75*
G54D10*
X-5800000Y-2170000D03*
Y2920000D03*
X1460000Y-2170000D03*
X1450000Y2910000D03*
G54D11*
G01X-2650000Y-1535000D02*
Y-250000D01*
X-2333000Y67000D01*
X-589000D01*
G01X-1650000Y-1535000D02*
Y-840000D01*
X-1251000Y-441000D01*
X-589000D01*
G01X445000Y1115000D02*
Y1400000D01*
X345000Y1500000D01*
X-110440D01*
X-210450Y1399990D01*
Y1110000D01*
G01X10000Y670000D02*
X-210450Y890450D01*
Y1110000D01*
G01X10000Y-530000D02*
X250000D01*
X420000Y-360000D01*
Y750000D01*
X210450Y959550D01*
Y1110000D01*
X-5430000Y-2040000D03*
X-5610000Y-1890000D03*
X-5820000Y-1830000D03*
X-5880000Y-1650000D03*
Y-1440000D03*
Y-1200000D03*
Y-960000D03*
X-5580000Y-990000D03*
X-5880000Y1440000D03*
X-5670000Y1410000D03*
X-5370000Y1110000D03*
X-5880000Y2220000D03*
Y2040000D03*
Y1830000D03*
Y1650000D03*
X-5520000Y1530000D03*
X-5490000Y2160000D03*
Y1980000D03*
Y1770000D03*
X-5640000Y2640000D03*
X-5850000Y2610000D03*
X-5880000Y2430000D03*
X-5490000Y2970000D03*
Y2790000D03*
Y2580000D03*
Y2370000D03*
X-4620000Y-2250000D03*
X-4860000D03*
X-5100000D03*
X-5340000D03*
Y145000D03*
X-4830000Y1500000D03*
X-5250000Y1740000D03*
X-5040000D03*
X-4830000D03*
X-3900000Y-2250000D03*
X-4140000D03*
X-4350000D03*
X-4290000Y60000D03*
X-4470000Y1740000D03*
X-4440000Y1530000D03*
X-4260000Y1770000D03*
X-3210000Y-2250000D03*
X-3420000D03*
X-3660000D03*
X-3609930Y720000D03*
Y1250070D03*
X-3510000Y1470000D03*
X-2310000Y-2250000D03*
X-2550000D03*
X-2790000D03*
X-3000000D03*
X-1680000D03*
X-1890000D03*
X-2100000D03*
X-2040000Y840000D03*
X-960000Y-2250000D03*
X-1200000D03*
X-1440000D03*
X-60000D03*
X-300000D03*
X-510000D03*
X-720000D03*
X600000D03*
X390000D03*
X180000D03*
X210450Y1320000D03*
X690000Y1950000D03*
X660000Y2820000D03*
X640000Y2580000D03*
X660000Y3030000D03*
X1050000Y-2250000D03*
X840000D03*
X870000Y1355010D03*
X1500000Y1140000D03*
X990000Y1830000D03*
X870000Y3030000D03*
X1080000D03*
X1560000Y-1680000D03*
Y-1860000D03*
Y-930000D03*
Y-1110000D03*
Y-1320000D03*
Y-1500000D03*
Y-120000D03*
Y-330000D03*
Y-540000D03*
Y-720000D03*
Y660000D03*
Y450000D03*
Y270000D03*
Y60000D03*
Y1440000D03*
Y840000D03*
Y2190000D03*
Y2010000D03*
Y1830000D03*
Y1620000D03*
Y2580000D03*
Y2400000D03*
G54D20*
X-4460000Y980000D03*
G54D21*
X-4200000Y1480000D03*
G54D12*
X-5705000Y-600000D03*
X-5875000D03*
X-4035000Y-570000D03*
X-4185000D03*
X-3915000Y-690000D03*
X-4035000D03*
X-4185000D03*
X-4355000Y1190000D03*
X-4525000D03*
X-3765000Y-690000D03*
X735000Y1800000D03*
X885000D03*
G54D13*
X-5770000Y-53000D03*
Y709000D03*
Y455000D03*
Y201000D03*
Y963000D03*
X-3304000Y74000D03*
Y582000D03*
Y1090000D03*
X-589000Y-441000D03*
G54D22*
X-4630000Y1860000D03*
G54D14*
X-5770000Y-307000D03*
X-589000Y67000D03*
G54D23*
X-3609930Y1479940D03*
Y1249940D03*
Y1709940D03*
G54D15*
X-4870000Y-1535000D03*
X-3870000D03*
X-2650000D03*
X-1650000D03*
X-430000D03*
X570000D03*
G54D24*
G01D02*
X798190Y-1306810D01*
Y238190D01*
X1230000Y670000D01*
X-190000Y70000D03*
X10000Y-530000D03*
Y670000D03*
X1230000Y-530000D03*
Y670000D03*
G54D16*
X-4635000Y-380000D03*
X-4785000D03*
X-4635000Y970000D03*
X-4185000Y-380000D03*
X-4335000D03*
X-4485000D03*
G54D25*
X-210450Y1110000D03*
X210450D03*
G54D26*
X445000Y1115000D03*
X720000Y1210000D03*
Y1020000D03*
G54D17*
X-5110000Y-115000D03*
Y710000D03*
X-3860000Y-115000D03*
Y710000D03*
G54D18*
X-5110000Y35000D03*
Y185000D03*
Y335000D03*
Y485000D03*
X-3860000D03*
Y335000D03*
Y185000D03*
Y35000D03*
G54D27*
X679940Y2019930D03*
X1139940D03*
X909940D03*
G54D28*
X910000Y2610000D03*
G54D19*
X-5340000Y-25000D03*
Y145000D03*
Y245000D03*
Y415000D03*
X-4630000Y1335000D03*
Y1165000D03*
X-5220000Y1235000D03*
Y1405000D03*
X-5370000D03*
Y1235000D03*
X-4630000Y1425000D03*
Y1575000D03*
X-3330000Y1395000D03*
X-3180000D03*
X-3330000Y1545000D03*
X-3180000D03*
X-3030000Y1395000D03*
Y1545000D03*
X1050000Y1195000D03*
Y1025000D03*
X1350000D03*
Y1195000D03*
X900000D03*
Y1025000D03*
X1200000Y1035000D03*
Y1185000D03*
G54D29*
G01X-5705000Y-600000D02*
Y-1555000D01*
X-5400000Y-1860000D01*
X-3960000D01*
X-3870000Y-1770000D01*
Y-1535000D01*
G01X-5580000Y-990000D02*
X-4260000D01*
X-4185000Y-915000D01*
Y-690000D01*
G01X-4785000Y-380000D02*
Y-505200D01*
X-4819800Y-540000D01*
X-5430000D01*
X-5460000Y-510000D01*
Y425000D01*
X-5490000Y455000D01*
X-5770000D01*
G01X-4635000Y-380000D02*
Y-585000D01*
X-4680000Y-630000D01*
X-5460000D01*
X-5520000Y-570000D01*
Y160000D01*
X-5561000Y201000D01*
X-5770000D01*
G01Y-53000D02*
X-5617000D01*
X-5580000Y-90000D01*
Y-610000D01*
X-5490000Y-700000D01*
X-4540000D01*
X-4485000Y-645000D01*
Y-380000D01*
G01X-5770000Y-307000D02*
X-5875000Y-412000D01*
Y-600000D01*
G01X-5370000Y1235000D02*
X-5875000D01*
X-5940000Y1170000D01*
Y-244700D01*
X-5877700Y-307000D01*
X-5770000D01*
G01X-5340000Y485000D02*
Y679000D01*
X-5370000Y709000D01*
X-5770000D01*
G01X-5163000Y963000D02*
X-5770000D01*
G01D02*
Y1060800D01*
G01X-5867800Y963000D02*
X-5770000D01*
G01X-4870000Y-1712800D02*
Y-1535000D01*
G01Y-1240000D02*
Y-1535000D01*
G01X-4035000Y-1080000D02*
X-4065000Y-1110000D01*
X-4740000D01*
X-4870000Y-1240000D01*
G01X-5047800Y-1535000D02*
X-4870000D01*
G01D02*
X-4692200D01*
G01X-4290000Y60000D02*
X-4500000D01*
X-4675000Y-115000D01*
G01D02*
X-5110000D01*
G01Y-202800D02*
Y-115000D01*
G01X-5235310D02*
X-5110000D01*
G01X-5340000Y415000D02*
Y485000D01*
G01D02*
X-5110000D01*
G01Y335000D02*
X-4915000D01*
X-4890000Y360000D01*
Y1200000D01*
X-4920000Y1230000D01*
X-5136300D01*
X-5141300Y1235000D01*
X-5220000D01*
G01X-5340000Y-25000D02*
X-5315000Y0D01*
X-5280000D01*
X-5245000Y35000D01*
X-5110000D01*
G01Y622200D02*
Y710000D01*
G01X-5340000Y245000D02*
Y145000D01*
G01X-5370000Y1405000D02*
X-5220000D01*
G01D02*
X-4975000D01*
X-4830000Y1260000D01*
Y780000D01*
X-4770000Y720000D01*
X-4320000D01*
X-4200000Y840000D01*
X-2040000D01*
G01X-5110000Y710000D02*
Y910000D01*
G01D02*
X-5163000Y963000D01*
G01X-5235310Y710000D02*
X-5110000D01*
G01D02*
X-4984690D01*
G01X-5370000Y1235000D02*
Y1110000D01*
G01X-4035000Y-690000D02*
Y-1080000D01*
G01Y-690000D02*
Y-570000D01*
G01Y-690000D02*
X-3915000D01*
G01X-4290000Y60000D02*
Y0D01*
X-4175000Y-115000D01*
G01D02*
X-3860000D01*
G01X-3900000Y-570000D02*
X-4035000D01*
G01X-3860000Y-212700D02*
X-3840000Y-232700D01*
Y-510000D01*
X-3900000Y-570000D01*
G01X-3915000Y-758800D02*
Y-690000D01*
G01D02*
Y-621200D01*
G01X-4185000Y-570000D02*
Y-690000D01*
G01Y-380000D02*
Y-570000D01*
G01X-3860000Y710000D02*
X-4240000D01*
X-4290000Y660000D01*
Y60000D01*
G01X-4460000Y980000D02*
X-4355000Y1085000D01*
G01X-4056320Y1190000D02*
X-4355000D01*
G01Y1085000D02*
Y1190000D01*
G01X-3609930Y1160070D02*
X-3720000Y1050000D01*
X-3916320D01*
X-4056320Y1190000D01*
G01X-4460000Y854690D02*
Y980000D01*
G01D02*
X-4372200D01*
G01X-4630000Y1165000D02*
Y1100200D01*
X-4635000Y1095200D01*
Y970000D01*
G01X-4630000Y1165000D02*
X-4550000D01*
X-4525000Y1190000D01*
G01X-4630000Y1425000D02*
Y1335000D01*
G01Y1575000D02*
Y1860000D01*
G01X-3870000Y-1535000D02*
X-3682300D01*
X-3600000Y-1452700D01*
Y-690000D01*
G01X-3860000Y-115000D02*
Y-212700D01*
G01X-3600000Y-690000D02*
Y-30010D01*
X-3665010Y35000D01*
X-3860000D01*
G01X-3765000Y-690000D02*
X-3600000D01*
G01X-3860000Y185000D02*
X-3625000D01*
X-3510000Y300000D01*
X-630000D01*
X-540000Y390000D01*
Y1440000D01*
X-330000Y1650000D01*
X870000D01*
X1050000Y1470000D01*
Y1195000D01*
G01X-3304000Y-23800D02*
Y74000D01*
G01D02*
Y171800D01*
G01X-3401800Y74000D02*
X-3304000D01*
G01D02*
X-3206200D01*
G01X-2826220Y1626220D02*
Y1140000D01*
X-2876220Y1090000D01*
X-3304000D01*
G01X-3030000Y1395000D02*
X-3180000D01*
G01D02*
X-3330000D01*
G01X-3609930Y1249940D02*
Y1250070D01*
G01Y720000D02*
X-3619930Y710000D01*
G01X-3330000Y1395000D02*
Y1320000D01*
G01X-3609930Y1249940D02*
Y1160070D01*
G01X-3619930Y710000D02*
X-3860000D01*
G01X-3474720Y1249940D02*
X-3609930D01*
G01X-3330000Y1320000D02*
X-3390000Y1260000D01*
X-3464660D01*
X-3474720Y1249940D01*
G01X-3180000Y1545000D02*
X-3030000D01*
G01Y1709940D02*
X-3609930D01*
G01X-3330000Y1545000D02*
X-3409660D01*
X-3474720Y1479940D01*
X-3609930D01*
G01X-3030000Y1340200D02*
Y1395000D01*
G01D02*
X-2961200D01*
G01X-3030000Y1545000D02*
Y1709940D01*
G01D02*
X-2909940D01*
X-2826220Y1626220D01*
G01D02*
X-2748440Y1704000D01*
X940640D01*
X946640Y1710000D01*
X1109940D01*
X1139940Y1740000D01*
Y2019930D01*
G01X210450Y1110000D02*
Y1320000D01*
G01X735000Y1800000D02*
X679940Y1855060D01*
G01D02*
Y2019930D01*
G01D02*
Y2145240D01*
G01X614640Y2019930D02*
X679940D01*
G01X1200000Y1035000D02*
X1340000D01*
X1350000Y1025000D01*
G01X1050000Y1195000D02*
X1190000D01*
X1200000Y1185000D01*
G01X900000Y1025000D02*
X1050000D01*
G01X720000Y1020000D02*
X816300D01*
X821300Y1025000D01*
X900000D01*
G01X870000Y1355010D02*
X724990Y1210000D01*
G01D02*
X720000D01*
G01X900000Y1195000D02*
X821300D01*
G01X806300Y1210000D02*
X724990D01*
G01X821300Y1195000D02*
X806300Y1210000D01*
G01X720000Y1152190D02*
Y1210000D01*
G01D02*
Y1267810D01*
G01X1500000Y1140000D02*
X1445000Y1195000D01*
X1350000D01*
G01X909940Y2019930D02*
Y1824940D01*
X885000Y1800000D01*
G01X990000Y1830000D02*
X960000Y1800000D01*
X885000D01*
G01X690000Y1950000D02*
X729960Y1910040D01*
Y1908680D01*
X735000Y1903640D01*
Y1800000D01*
M02*
