G04 ================== begin FILE IDENTIFICATION RECORD ==================*
G04 Layout Name:  C:/DATA/GIT/CADENCE/MODULES/ZWAVE_SWITCH/allegro/ZWAVE_SWITCH.brd*
G04 Film Name:    BOTTOM*
G04 File Format:  Gerber RS274X*
G04 File Origin:  Cadence Allegro 17.2-P019*
G04 Origin Date:  Wed May 24 16:04:16 2017*
G04 *
G04 Layer:  ETCH/BOTTOM*
G04 Layer:  PIN/BOTTOM*
G04 Layer:  VIA CLASS/BOTTOM*
G04 *
G04 Offset:    (0.0000 0.0000)*
G04 Mirror:    No*
G04 Mode:      Positive*
G04 Rotation:  0*
G04 FullContactRelief:  No*
G04 UndefLineWidth:     0.0000*
G04 ================== end FILE IDENTIFICATION RECORD ====================*
%FSLAX25Y25*MOMM*%
%IR0*IPPOS*OFA0.00000B0.00000*MIA0B0*SFA1.00000B1.00000*%
%ADD13C,1.*%
%ADD14C,3.*%
%ADD10C,3.5*%
%ADD16R,3.X3.*%
%ADD15R,1.524X1.524*%
%ADD12C,1.5999*%
%ADD11R,1.5999X1.5999*%
%ADD17C,.3*%
%ADD18C,.4*%
%ADD19C,.7*%
%ADD21C,4.0004*%
%ADD23C,2.6004*%
%ADD20C,3.2544*%
%ADD22C,1.8544*%
G75*
%LPD*%
G75*
G36*
G01X-4758640Y-820080D02*
X-4231060D01*
X-4009980Y-599000D01*
Y865000D01*
X-3544980Y1329990D01*
X-3515950Y1330000D01*
X-3515920D01*
G03X-3415640Y1374980I1917J130000D01*
G01X-2755020D01*
Y714780D01*
X-2632600Y592360D01*
G02X-2639780Y575020I-7186J-7181D01*
G01X-2793070D01*
X-2973070Y755020D01*
X-3686930D01*
X-3815020Y626930D01*
Y-693070D01*
X-4196930Y-1074980D01*
X-5253070D01*
X-5754980Y-573070D01*
Y-321630D01*
X-5704980Y-271630D01*
Y-271270D01*
X-5700650Y-267020D01*
X-5690000D01*
G03X-5640060Y-219810I-4J50023D01*
G01X-5639790Y-215020D01*
X-5343070D01*
X-5274980Y-146930D01*
Y313580D01*
X-5270120Y318440D01*
X-5270100Y318460D01*
G03X-5409900I-69900J71540D01*
G01X-5409880Y318440D01*
X-5405020Y313580D01*
Y-84980D01*
X-5622370D01*
X-5635370Y-71980D01*
X-5635730D01*
X-5639980Y-67650D01*
Y-57000D01*
G03X-5688820Y-7000I-50021J-7D01*
G02X-5693780Y-1920I120J5079D01*
G01Y11630D01*
X-5691760Y13160D01*
G03X-5693780Y222340I-78240J103844D01*
G01Y265660D01*
G03Y476340I-76220J105340D01*
G01Y519660D01*
G03Y730340I-76220J105340D01*
G01Y773660D01*
G03Y984340I-76220J105340D01*
G01Y1049200D01*
X-5698160D01*
G02X-5705250Y1066630I4J10159D01*
G03X-5834750I-64750J66370D01*
G02X-5841840Y1049200I-7094J-7271D01*
G01X-5846220D01*
Y984340D01*
G03Y773660I76220J-105340D01*
G01Y730340D01*
G03Y519660I76220J-105340D01*
G01Y476340D01*
G03Y265660I76220J-105340D01*
G01Y222340D01*
G03X-5848240Y13160I76220J-105336D01*
G01X-5846220Y11630D01*
Y-1920D01*
G02X-5851180Y-7000I-5080J-1D01*
G03X-5900020Y-57000I1181J-50007D01*
G01Y-217000D01*
G03X-5884790Y-252930I50022J10D01*
G02X-5884670Y-267420I-7063J-7304D01*
G01X-5885020Y-267770D01*
Y-626930D01*
X-5306930Y-1205020D01*
X-4143070D01*
X-3684980Y-746930D01*
Y573070D01*
X-3633070Y624980D01*
X-3026930D01*
X-2846930Y444980D01*
X-1683070D01*
X-1443070Y684980D01*
X1076930D01*
X1302650Y910690D01*
G02X1319990Y903510I7182J-7183D01*
G01Y-1609990D01*
X1204010D01*
G02X1198650Y-1591200I-3J10159D01*
G03X961350I-118650J191200D01*
G02X955990Y-1609990I-5357J-8631D01*
G01X-5615990D01*
G02X-5621350Y-1591200I-3J10159D01*
G03X-5931200Y-1281350I-118650J191200D01*
G02X-5949990Y-1275990I-8631J5357D01*
G01Y2708440D01*
G02X-5932060Y2714990I10161J2D01*
G03X-5614990Y3032060I172060J145010D01*
G02X-5608440Y3049990I6548J7769D01*
G01X977310D01*
G02X984340Y3032490I4J-10160D01*
G03X1302490Y2714340I155660J-162490D01*
G02X1319990Y2707310I7340J-7026D01*
G01Y1556490D01*
G02X1302650Y1549310I-10158J3D01*
G01X1255020Y1596930D01*
Y1623580D01*
X1259880Y1628440D01*
X1259900Y1628460D01*
G03X1126810Y1777530I-69902J71538D01*
G02X1111130Y1781220I-6421J7874D01*
G03X952080Y1813420I-91130J-41221D01*
G02X935020Y1820880I-6900J7458D01*
G01Y1843580D01*
X939880Y1848440D01*
X939900Y1848460D01*
G03X792630Y1856620I-69897J71541D01*
G02X784770Y1840020I-7861J-6439D01*
G01X551420D01*
X546560Y1844880D01*
X546540Y1844900D01*
G03X510020Y1868690I-71542J-69898D01*
G01Y3030020D01*
X-5280020D01*
Y1829980D01*
X-576400D01*
G02X-569400Y1812460I-1J-10159D01*
G03X-524670Y1642960I68949J-72457D01*
G01X-523300Y1642620D01*
X-463050Y1582360D01*
G02X-470230Y1565020I-7186J-7181D01*
G01X-836930D01*
X-1011930Y1390020D01*
X-1020000D01*
G03X-919980Y1290000I0J-100020D01*
G01Y1298070D01*
X-783070Y1434980D01*
X-599780D01*
G02X-592600Y1417640I-6J-10159D01*
G01X-952520Y1057720D01*
X-1402510D01*
X-1775210Y685020D01*
X-2484780D01*
X-2584980Y785220D01*
Y1465220D01*
X-2664780Y1545020D01*
X-3415640D01*
G03X-3644010Y1458900I-98361J-85022D01*
G01Y1458880D01*
X-3644020Y1429010D01*
X-4150020Y923000D01*
Y-541000D01*
X-4289060Y-680040D01*
X-4758640D01*
G03Y-820080I-71420J-70020D01*
G37*
G36*
G01X-5949990Y-1609990D02*
Y-1524010D01*
G02X-5931200Y-1518650I10159J3D01*
G03X-5858650Y-1591200I191200J118650D01*
G02X-5864010Y-1609990I-5357J-8631D01*
G01X-5949990D01*
G37*
G36*
G01X-5762610Y-257750D02*
X-5721080Y-216980D01*
X-5770000Y-133250D01*
X-5818920Y-216980D01*
X-5777390Y-257750D01*
G03X-5762610I7390J13050D01*
G37*
G36*
G01X-5649250Y-129610D02*
X-5690020Y-88080D01*
X-5773750Y-137000D01*
X-5690020Y-185920D01*
X-5649250Y-144390D01*
G03Y-129610I-13050J7390D01*
G37*
G36*
G01X-4773490Y-735910D02*
X-4794720Y-714710D01*
X-4835060Y-750060D01*
X-4794720Y-785410D01*
X-4773490Y-764210D01*
G03Y-735910I-14140J14150D01*
G37*
G36*
G01X-5329390Y329890D02*
X-5304650Y354650D01*
X-5340000Y393750D01*
X-5375350Y354650D01*
X-5350610Y329890D01*
G03X-5329390I10610J10610D01*
G37*
G36*
G01X-3574000Y1380010D02*
X-3514000Y1380020D01*
X-3510460Y1463540D01*
X-3593990Y1460000D01*
X-3594000Y1400010D01*
G03X-3574000Y1380010I20000J0D01*
G37*
G36*
G01X-985000Y1340000D02*
X-1020000D01*
X-1022650Y1287350D01*
X-970000Y1290000D01*
Y1325000D01*
G03X-985000Y1340000I-15000J0D01*
G37*
G36*
G01X-414340Y1221320D02*
G03X-422150Y1224980I-7808J-6499D01*
G01X-520260D01*
G02X-527440Y1242320I6J10159D01*
G01X-454780Y1314980D01*
X912080D01*
X949720Y1277350D01*
G02X942410Y1260010I-7187J-7181D01*
G03X819580Y1219710I-2405J-200007D01*
G02X805660Y1221320I-6115J8112D01*
G03X797850Y1224980I-7808J-6499D01*
G01X-137850D01*
G03X-145660Y1221320I-2J-10159D01*
G02X-159580Y1219710I-7805J6502D01*
G03X-400420I-120420J-159710D01*
G02X-414340Y1221320I-6115J8112D01*
G37*
G36*
G01X919980Y1740000D02*
Y1731930D01*
X753070Y1565020D01*
X260880D01*
G02X253420Y1582080I-2J10160D01*
G03X127320Y1735020I-73424J67917D01*
G01X-375230D01*
X-403070Y1762850D01*
X-403410Y1764220D01*
G03X-431500Y1812460I-97045J-24211D01*
G02X-424500Y1829980I7001J7361D01*
G01X374350D01*
G02X383630Y1815690I-2J-10159D01*
G03X546540Y1705100I91369J-40690D01*
G01X546560Y1705120D01*
X551420Y1709980D01*
X866930D01*
X915520Y1758570D01*
X920830Y1753250D01*
X920570Y1750830D01*
G03X919980Y1740000I99429J-10848D01*
G37*
G36*
G01X535110Y1785610D02*
X510350Y1810350D01*
X471250Y1775000D01*
X510350Y1739650D01*
X535110Y1764390D01*
G03Y1785610I-10610J10610D01*
G37*
G36*
G01X985000Y1690000D02*
X1020000D01*
X1022650Y1742650D01*
X970000Y1740000D01*
Y1705000D01*
G03X985000Y1690000I15000J0D01*
G37*
G36*
G01X880610Y1859890D02*
X905350Y1884650D01*
X870000Y1923750D01*
X834650Y1884650D01*
X859390Y1859890D01*
G03X880610I10610J10610D01*
G37*
G36*
G01X1200610Y1639890D02*
X1225350Y1664650D01*
X1190000Y1703750D01*
X1154650Y1664650D01*
X1179390Y1639890D01*
G03X1200610I10610J10610D01*
G37*
%LPC*%
G75*
G36*
G01X189980Y-1510000D02*
Y-1210000D01*
G02X240000Y-1159980I50020J0D01*
G01X540000D01*
G02X590020Y-1210000I0J-50020D01*
G01Y-1510000D01*
G02X540000Y-1560020I-50020J0D01*
G01X240000D01*
G02X189980Y-1510000I0J50020D01*
G37*
G36*
G01X-2128920Y-16200D02*
Y136200D01*
G02X-2116200Y148920I12720J0D01*
G01X-1963800D01*
G02X-1951080Y136200I0J-12720D01*
G01Y-16200D01*
G02X-1963800Y-28920I-12720J0D01*
G01X-2116200D01*
G02X-2128920Y-16200I0J12720D01*
G37*
G36*
G01X-1913780Y763800D02*
G02X-1963800Y713780I-50020J0D01*
G01X-2116200D01*
G02X-2166220Y763800I0J50020D01*
G01Y916200D01*
G02X-2153070Y950000I50014J0D01*
G01X-2105020Y1002430D01*
Y1484850D01*
X-2235150Y1614980D01*
X-5113580D01*
X-5118440Y1610120D01*
X-5118460Y1610100D01*
G02Y1749900I-71540J69900D01*
G01X-5118440Y1749880D01*
X-5113580Y1745020D01*
X-2181290D01*
X-1974980Y1538710D01*
Y1002430D01*
X-1926930Y950000D01*
G02X-1913780Y916200I-36864J-33800D01*
G01Y763800D01*
G37*
G36*
G01X-1169570Y-171020D02*
X-1209980Y-211430D01*
Y-1186780D01*
G02X-1410020I-100020J-173220D01*
G01Y-128570D01*
X-1252430Y29020D01*
X-882070D01*
G02Y-171020I83070J-100020D01*
G01X-1169570D01*
G37*
G36*
G01X-2260020Y-948570D02*
X-1780020Y-468570D01*
Y251430D01*
X-1494430Y537020D01*
X-924830D01*
G02X-879000Y567020I45840J-20021D01*
G01X-719000D01*
G02X-677790Y545330I-14J-50020D01*
G03X-660260Y546690I8371J5759D01*
G02X-480000Y660020I180260J-86694D01*
G01X172840D01*
X590020Y242840D01*
Y-442850D01*
X-259980Y-1292850D01*
Y-1360000D01*
G02X-660020I-200020J0D01*
G01Y-1127150D01*
X189980Y-277150D01*
Y77140D01*
X7140Y259980D01*
X-480000D01*
G02X-659350Y371450I0J200018D01*
G01X-660750Y374280D01*
X-668980D01*
Y357000D01*
G02X-719000Y306980I-50025J5D01*
G01X-879000D01*
G02X-924830Y336980I10J50021D01*
G01X-1411570D01*
X-1579980Y168570D01*
Y-551430D01*
X-2059980Y-1031430D01*
Y-1186780D01*
G02X-2260020I-100020J-173220D01*
G01Y-948570D01*
G37*
G54D21*
X-3010000Y-1360000D03*
X-280000Y-140000D03*
X940000D03*
G54D23*
X-3514000Y952000D03*
G54D20*
X-3860000Y-1360000D03*
G54D22*
X-3514000Y444000D03*
%LPD*%
G75*
G36*
G01X-4630020Y655020D02*
Y690020D01*
X-4682670Y692670D01*
X-4680020Y640020D01*
X-4645020D01*
G03X-4630020Y655020I0J15000D01*
G37*
G36*
G01X-4730020Y725020D02*
Y690020D01*
X-4677370Y687370D01*
X-4680020Y740020D01*
X-4715020D01*
G03X-4730020Y725020I0J-15000D01*
G37*
G36*
G01X-5170110Y869390D02*
X-5145350Y844650D01*
X-5106250Y880000D01*
X-5145350Y915350D01*
X-5170110Y890610D01*
G03Y869390I10610J-10610D01*
G37*
G36*
G01X-5049890Y890610D02*
X-5074650Y915350D01*
X-5113750Y880000D01*
X-5074650Y844650D01*
X-5049890Y869390D01*
G03Y890610I-10610J10610D01*
G37*
G36*
G01X-5129890Y1690610D02*
X-5154650Y1715350D01*
X-5193750Y1680000D01*
X-5154650Y1644650D01*
X-5129890Y1669390D01*
G03Y1690610I-10610J10610D01*
G37*
G36*
G01X-4550000Y545000D02*
Y510000D01*
X-4497350Y507350D01*
X-4500000Y560000D01*
X-4535000D01*
G03X-4550000Y545000I0J-15000D01*
G37*
G36*
G01X-3503390Y341470D02*
X-3457440Y387440D01*
X-3514000Y447750D01*
X-3570560Y387440D01*
X-3524610Y341470D01*
G03X-3503390I10610J10610D01*
G37*
G36*
G01X-2189090Y50610D02*
X-2116200Y-16200D01*
X-2036250Y60000D01*
X-2116200Y136200D01*
X-2189090Y69390D01*
G03Y50610I11700J-9390D01*
G37*
G36*
G01X-2049390Y989090D02*
X-2116200Y916200D01*
X-2040000Y836250D01*
X-1963800Y916200D01*
X-2030610Y989090D01*
G03X-2049390I-9390J-11700D01*
G37*
G36*
G01X595000Y1600000D02*
X630000D01*
X632650Y1652650D01*
X580000Y1650000D01*
Y1615000D01*
G03X595000Y1600000I15000J0D01*
G37*
G54D10*
X-5740000Y-1400000D03*
X-5760000Y2860000D03*
X1080000Y-1400000D03*
X1140000Y2870000D03*
G54D11*
X-5770000Y-137000D03*
X-799000Y437000D03*
G54D12*
X-5770000Y625000D03*
Y371000D03*
Y117000D03*
Y1133000D03*
Y879000D03*
X-3514000Y444000D03*
Y952000D03*
Y1460000D03*
X-799000Y-71000D03*
G54D13*
G01X-2160000Y-1360000D02*
Y-990000D01*
X-1680000Y-510000D01*
Y210000D01*
X-1453000Y437000D01*
X-799000D01*
G01X-1310000Y-1360000D02*
Y-170000D01*
X-1211000Y-71000D01*
X-799000D01*
X-5490000Y1200000D03*
X-5400000Y2130000D03*
Y1920000D03*
X-5850000Y2100000D03*
Y1860000D03*
Y1680000D03*
X-5700000Y1560000D03*
X-5400000Y2970000D03*
Y2760000D03*
Y2550000D03*
Y2340000D03*
X-5580000Y2610000D03*
X-5790000Y2520000D03*
X-5850000Y2310000D03*
X-5310000Y-1470000D03*
X-5130000D03*
X-4950000D03*
X-4830060Y-750060D03*
X-5070000Y-180000D03*
X-4680000Y120000D03*
Y300000D03*
Y510000D03*
X-4680020Y690020D03*
X-4860000Y300000D03*
Y120000D03*
X-5340000Y390000D03*
X-5110000Y880000D03*
X-4680000Y870000D03*
X-5190000Y1680000D03*
X-4500000Y510000D03*
Y690000D03*
Y300000D03*
Y120000D03*
X-4320000Y690000D03*
Y510000D03*
Y300000D03*
Y120000D03*
X-4500000Y870000D03*
X-4320000D03*
X-3180000Y-780000D03*
Y-570000D03*
Y-360000D03*
X-3240000Y-60000D03*
X-3420000D03*
X-3600000Y-390000D03*
Y-570000D03*
Y-780000D03*
X-3270000Y420000D03*
X-2460000Y-1470000D03*
Y-1260000D03*
X-2370000Y-1080000D03*
X-2340000Y-870000D03*
X-2730000Y-1500000D03*
X-2700000Y-1320000D03*
X-2760000Y-1140000D03*
X-2820000Y-960000D03*
Y-780000D03*
Y-570000D03*
Y-360000D03*
Y-150000D03*
X-3030000Y-60000D03*
X-2700000Y-30000D03*
X-2430000D03*
X-3030000Y360000D03*
X-2790000Y330000D03*
X-2580000D03*
X-2340000D03*
X-2820000Y1320000D03*
Y1140000D03*
Y930000D03*
X-3060000D03*
Y1140000D03*
Y1320000D03*
X-2520000D03*
Y1140000D03*
Y930000D03*
X-1590000Y-1380000D03*
X-1740000Y-1500000D03*
X-1920000Y-1530000D03*
X-1860000Y-1350000D03*
X-1920000Y-1170000D03*
X-1890000Y-990000D03*
X-1770000Y-870000D03*
X-1650000Y-750000D03*
X-2190000Y-720000D03*
X-2040000Y-570000D03*
X-1890000Y-420000D03*
Y-210000D03*
Y-30000D03*
X-2190000D03*
X-2100000Y330000D03*
X-1860000Y1470000D03*
Y1260000D03*
Y1050000D03*
X-2220000D03*
Y1260000D03*
Y1470000D03*
X-1740000Y900000D03*
X-1560000Y1050000D03*
X-1860000Y1710000D03*
X-1650000D03*
X-1050000Y-1470000D03*
Y-1260000D03*
X-1110000Y-1080000D03*
Y-900000D03*
X-1500000Y-840000D03*
Y-1020000D03*
X-1530000Y-1200000D03*
Y-1530000D03*
X-1110000Y-690000D03*
Y-480000D03*
Y-270000D03*
X-900000D03*
X-1500000Y-120000D03*
Y-300000D03*
Y-480000D03*
Y-660000D03*
X-810000Y150000D03*
X-990000Y120000D03*
X-1020000Y1290000D03*
X-1350000Y1140000D03*
X-1440000Y1710000D03*
X-1230000D03*
X-1020000D03*
X-810000D03*
X-510000Y-840000D03*
X-720000Y-1020000D03*
X-750000Y-1230000D03*
Y-1440000D03*
X-180000Y-1470000D03*
X-150000Y-1290000D03*
Y-510000D03*
X-300000Y-660000D03*
X-660000Y-270000D03*
X-570000Y-90000D03*
X-630000Y90000D03*
X-500450Y1740000D03*
X690000Y-1050000D03*
Y-840000D03*
X0Y-1170000D03*
X120000Y-1020000D03*
Y-1290000D03*
Y-1470000D03*
X690000Y-1260000D03*
Y-1470000D03*
Y-630000D03*
Y-420000D03*
Y-240000D03*
Y-30000D03*
Y180000D03*
Y390000D03*
X180000Y1650000D03*
X475000Y1775000D03*
X630000Y1650000D03*
Y2970000D03*
X590000Y2760000D03*
Y2600000D03*
X1230000Y-960000D03*
X1140000Y-1110000D03*
X1230000Y-420000D03*
Y-600000D03*
Y-780000D03*
X870000Y540000D03*
X1080000Y600000D03*
X1200000Y450000D03*
Y240000D03*
X1140000Y1320000D03*
X1020000Y1740000D03*
X870000Y1920000D03*
X1190000Y1700000D03*
X810000Y2970000D03*
X1230000Y2550000D03*
G54D14*
G01X-460000Y-1360000D02*
Y-1210000D01*
X390000Y-360000D01*
Y159990D01*
X89990Y460000D01*
X-480000D01*
X-3860000Y-1360000D03*
X-3010000D03*
X-2160000D03*
X-1310000D03*
X-460000D03*
X-280000Y-140000D03*
X-480000Y460000D03*
X-280000Y1060000D03*
X940000Y-140000D03*
Y1060000D03*
G54D15*
X-2040000Y60000D03*
Y840000D03*
G54D16*
X390000Y-1360000D03*
G54D17*
G01X-5770000Y-137000D02*
Y-244700D01*
X-5820000Y-294700D01*
Y-600000D01*
X-5280000Y-1140000D01*
X-4170000D01*
X-3750000Y-720000D01*
Y600000D01*
X-3660000Y690000D01*
X-3000000D01*
X-2820000Y510000D01*
X-1710000D01*
X-1470000Y750000D01*
X1050000D01*
X1260000Y960000D01*
Y1500000D01*
X1190000Y1570000D01*
Y1700000D01*
G01X-5770000Y-137000D02*
X-5662300D01*
X-5649300Y-150000D01*
X-5370000D01*
X-5340000Y-120000D01*
Y390000D01*
G01X-5770000Y1133000D02*
Y1230800D01*
G01X-5867800Y1133000D02*
X-5770000D01*
G01D02*
X-5672200D01*
G01X-4680020Y690020D02*
X-4500000Y510000D01*
G01X-5110000Y880000D02*
X-4870000D01*
X-4680020Y690020D01*
G01X-950000Y1640000D02*
X-1010000Y1580000D01*
X-1152300Y1722300D01*
Y1742190D01*
X-1197810Y1787700D01*
X-1217700D01*
X-1245000Y1815000D01*
X-5325000D01*
X-5370000Y1770000D01*
Y910000D01*
X-5340000Y880000D01*
X-5110000D01*
G01X-5190000Y1680000D02*
X-2208220D01*
X-2040000Y1511780D01*
Y840000D01*
G01X-4027800Y-1360000D02*
X-3860000D01*
G01X-3514000Y90000D02*
Y-814000D01*
X-3860000Y-1160000D01*
G01D02*
Y-1360000D01*
G01Y-1527800D02*
Y-1360000D01*
G01D02*
X-3692200D01*
G01X-3514000Y444000D02*
Y90000D01*
G01D02*
X-3484000Y60000D01*
G01D02*
X-2040000D01*
G01X-3514000Y444000D02*
Y541800D01*
G01X-3611800Y444000D02*
X-3514000D01*
G01D02*
X-3416200D01*
G01X-2040000Y-34000D02*
Y60000D01*
G01D02*
Y154000D01*
G01Y60000D02*
X-1946000D01*
G01X-1020000Y1290000D02*
X-810000Y1500000D01*
X780000D01*
X1020000Y1740000D01*
G01X-860000Y1550000D02*
X530000D01*
X630000Y1650000D01*
G01X870000Y1920000D02*
Y1805000D01*
X840000Y1775000D01*
X475000D01*
G54D18*
G01X-3514000Y1460000D02*
X-4080000Y894000D01*
Y-570000D01*
X-4260060Y-750060D01*
X-4830060D01*
G54D19*
G01X-3514000Y1460000D02*
X-2700000D01*
X-2670000Y1430000D01*
Y750000D01*
X-2520000Y600000D01*
X-1739990D01*
X-1367290Y972700D01*
X-917300D01*
X-490000Y1400000D01*
X947300D01*
X1027300Y1320000D01*
X1140000D01*
G01X180000Y1650000D02*
X-410450D01*
X-500450Y1740000D01*
M02*
