G04 ================== begin FILE IDENTIFICATION RECORD ==================*
G04 Layout Name:  C:/DATA/GIT/CADENCE/MODULES/ZWAVE_SWITCHV2/allegro/ZWAVE_SWITCHV2.brd*
G04 Film Name:    SC_BOT*
G04 File Format:  Gerber RS274X*
G04 File Origin:  Cadence Allegro 17.2-P019*
G04 Origin Date:  Tue Jun 20 23:39:54 2017*
G04 *
G04 Layer:  REF DES/SILKSCREEN_BOTTOM*
G04 Layer:  PACKAGE GEOMETRY/SILKSCREEN_BOTTOM*
G04 Layer:  BOARD GEOMETRY/SILKSCREEN_BOTTOM*
G04 Layer:  BOARD GEOMETRY/DESIGN_OUTLINE*
G04 *
G04 Offset:    (0.0000 0.0000)*
G04 Mirror:    No*
G04 Mode:      Positive*
G04 Rotation:  0*
G04 FullContactRelief:  No*
G04 UndefLineWidth:     0.0000*
G04 ================== end FILE IDENTIFICATION RECORD ====================*
%FSLAX25Y25*MOMM*%
%IR0*IPPOS*OFA0.00000B0.00000*MIA0B0*SFA1.00000B1.00000*%
%ADD10C,.1*%
%ADD11C,.2*%
%ADD12C,.5*%
%ADD13C,.15*%
%ADD14C,.254*%
G75*
%LPD*%
G75*
G36*
G01X-3074550Y785000D02*
G02I-15000J0D01*
G37*
G54D10*
G01X-2350000Y940000D02*
X-1720000D01*
Y610000D01*
X-2350000D01*
Y940000D01*
G54D11*
G01X-3405000Y510200D02*
Y799800D01*
G54D12*
G01X-1005000Y75000D02*
Y-75000D01*
X-855000D01*
G01X-1005000Y1310000D02*
Y1435000D01*
X-880000D01*
G01X245000Y-75000D02*
X395000D01*
Y75000D01*
G01Y1285000D02*
Y1435000D01*
X245000D01*
G54D13*
G01X-4149740Y1140000D02*
Y1218740D01*
X-4174080D01*
X-4181870Y1214800D01*
X-4186740Y1209550D01*
X-4188680Y1199050D01*
X-4186740Y1188560D01*
X-4180890Y1182000D01*
X-4174080Y1178060D01*
X-4149740D01*
G01X-4174080D02*
X-4188680Y1140000D01*
G01X-4247950D02*
Y1218740D01*
X-4236270Y1202990D01*
G01Y1140000D02*
X-4259630D01*
G01X-4105000Y1130000D02*
X-3885000D01*
Y1230000D01*
X-4105000D01*
Y1130000D01*
G01X-4149740Y990000D02*
Y1068740D01*
X-4174080D01*
X-4181870Y1064800D01*
X-4186740Y1059550D01*
X-4188680Y1049050D01*
X-4186740Y1038560D01*
X-4180890Y1032000D01*
X-4174080Y1028060D01*
X-4149740D01*
G01X-4174080D02*
X-4188680Y990000D01*
G01X-4229450Y1055620D02*
X-4235290Y1063490D01*
X-4242110Y1067430D01*
X-4249900Y1068740D01*
X-4259630Y1066120D01*
X-4266450Y1059550D01*
X-4268400Y1051680D01*
X-4267420Y1043800D01*
X-4263530Y1037240D01*
X-4244060Y1024120D01*
X-4235290Y1014930D01*
X-4229450Y1001810D01*
X-4227500Y990000D01*
X-4268400D01*
G01X-4105000Y980000D02*
X-3885000D01*
Y1080000D01*
X-4105000D01*
Y980000D01*
G01X-3780000Y579210D02*
X-3778690Y571420D01*
X-3773440Y564610D01*
X-3765570Y558760D01*
X-3756380Y554870D01*
X-3745880Y552920D01*
X-3735380D01*
X-3724880Y554870D01*
X-3715690Y558760D01*
X-3707820Y564610D01*
X-3702570Y571420D01*
X-3701260Y579210D01*
X-3702570Y587000D01*
X-3707820Y593810D01*
X-3715690Y599660D01*
X-3724880Y603550D01*
X-3735380Y605500D01*
X-3745880D01*
X-3756380Y603550D01*
X-3765570Y599660D01*
X-3773440Y593810D01*
X-3778690Y587000D01*
X-3780000Y579210D01*
G01X-3759000Y587000D02*
X-3780000Y598680D01*
G01Y657950D02*
X-3701260D01*
X-3717010Y646270D01*
G01X-3780000D02*
Y669630D01*
G01X-3360790Y570000D02*
Y491260D01*
X-3341320D01*
X-3333530Y495200D01*
X-3327690Y500450D01*
X-3322820Y508320D01*
X-3318920Y517510D01*
X-3317950Y530630D01*
X-3318920Y543750D01*
X-3322820Y552940D01*
X-3327690Y560820D01*
X-3333530Y566060D01*
X-3341320Y570000D01*
X-3360790D01*
G01X-3279130Y504380D02*
X-3273290Y496510D01*
X-3266470Y492570D01*
X-3258680Y491260D01*
X-3248950Y493880D01*
X-3242130Y500450D01*
X-3240180Y508320D01*
X-3241160Y516200D01*
X-3245050Y522760D01*
X-3264520Y535880D01*
X-3273290Y545070D01*
X-3279130Y558190D01*
X-3281080Y570000D01*
X-3240180D01*
G01X-2390630Y1332180D02*
X-2384790Y1336120D01*
X-2377970Y1338740D01*
X-2370180D01*
X-2361420Y1334800D01*
X-2354610Y1328240D01*
X-2349740Y1320370D01*
X-2345840Y1307240D01*
X-2344870Y1295430D01*
X-2346820Y1283620D01*
X-2349740Y1275750D01*
X-2355580Y1267870D01*
X-2362390Y1262620D01*
X-2369210Y1260000D01*
X-2376030D01*
X-2382840Y1262620D01*
X-2388680Y1266560D01*
X-2393550Y1271810D01*
G01X-2459630Y1260000D02*
Y1338740D01*
X-2423610Y1282310D01*
X-2472290D01*
G01X-2080000Y1340000D02*
X-2300000D01*
Y1240000D01*
X-2080000D01*
Y1340000D01*
G01X-1822210Y971260D02*
Y1027690D01*
X-1818320Y1039500D01*
X-1810530Y1047380D01*
X-1800790Y1050000D01*
X-1791050Y1047380D01*
X-1783260Y1039500D01*
X-1779370Y1027690D01*
Y971260D01*
G01X-1740550Y984380D02*
X-1734710Y976510D01*
X-1727890Y972570D01*
X-1720100Y971260D01*
X-1710370Y973880D01*
X-1703550Y980450D01*
X-1701600Y988320D01*
X-1702580Y996200D01*
X-1706470Y1002760D01*
X-1725940Y1015880D01*
X-1734710Y1025070D01*
X-1740550Y1038190D01*
X-1742500Y1050000D01*
X-1701600D01*
G01X-2040630Y1542180D02*
X-2034790Y1546120D01*
X-2027970Y1548740D01*
X-2020180D01*
X-2011420Y1544800D01*
X-2004610Y1538240D01*
X-1999740Y1530370D01*
X-1995840Y1517240D01*
X-1994870Y1505430D01*
X-1996820Y1493620D01*
X-1999740Y1485750D01*
X-2005580Y1477870D01*
X-2012390Y1472620D01*
X-2019210Y1470000D01*
X-2026030D01*
X-2032840Y1472620D01*
X-2038680Y1476560D01*
X-2043550Y1481810D01*
G01X-2079450Y1535620D02*
X-2085290Y1543490D01*
X-2092110Y1547430D01*
X-2099900Y1548740D01*
X-2109630Y1546120D01*
X-2116450Y1539550D01*
X-2118400Y1531680D01*
X-2117420Y1523800D01*
X-2113530Y1517240D01*
X-2094060Y1504120D01*
X-2085290Y1494930D01*
X-2079450Y1481810D01*
X-2077500Y1470000D01*
X-2118400D01*
G01X-1750000Y1550000D02*
X-1970000D01*
Y1450000D01*
X-1750000D01*
Y1550000D01*
G01X-2040630Y1652180D02*
X-2034790Y1656120D01*
X-2027970Y1658740D01*
X-2020180D01*
X-2011420Y1654800D01*
X-2004610Y1648240D01*
X-1999740Y1640370D01*
X-1995840Y1627240D01*
X-1994870Y1615430D01*
X-1996820Y1603620D01*
X-1999740Y1595750D01*
X-2005580Y1587870D01*
X-2012390Y1582620D01*
X-2019210Y1580000D01*
X-2026030D01*
X-2032840Y1582620D01*
X-2038680Y1586560D01*
X-2043550Y1591810D01*
G01X-2097950Y1580000D02*
Y1658740D01*
X-2086270Y1642990D01*
G01Y1580000D02*
X-2109630D01*
G01X-1750000Y1700000D02*
X-1970000D01*
Y1600000D01*
X-1750000D01*
Y1700000D01*
G01X-1160630Y-887820D02*
X-1154790Y-883880D01*
X-1147970Y-881260D01*
X-1140180D01*
X-1131420Y-885200D01*
X-1124610Y-891760D01*
X-1119740Y-899630D01*
X-1115840Y-912760D01*
X-1114870Y-924570D01*
X-1116820Y-936380D01*
X-1119740Y-944250D01*
X-1125580Y-952130D01*
X-1132390Y-957380D01*
X-1139210Y-960000D01*
X-1146030D01*
X-1152840Y-957380D01*
X-1158680Y-953440D01*
X-1163550Y-948190D01*
G01X-1201400Y-950820D02*
X-1208210Y-957380D01*
X-1216000Y-960000D01*
X-1223790Y-957380D01*
X-1230610Y-949500D01*
X-1235480Y-937690D01*
X-1237420Y-925880D01*
Y-911440D01*
X-1235480Y-899630D01*
X-1230610Y-889130D01*
X-1224770Y-883880D01*
X-1217950Y-881260D01*
X-1210160Y-883880D01*
X-1204320Y-889130D01*
X-1200420Y-897010D01*
X-1198480Y-907510D01*
X-1200420Y-916690D01*
X-1205290Y-925880D01*
X-1211130Y-931130D01*
X-1217950Y-932440D01*
X-1225740Y-929820D01*
X-1231580Y-923260D01*
X-1237420Y-911440D01*
G01X-850000Y-880000D02*
X-1070000D01*
Y-980000D01*
X-850000D01*
Y-880000D01*
G01X-1119740Y-780000D02*
Y-701260D01*
X-1144080D01*
X-1151870Y-705200D01*
X-1156740Y-710450D01*
X-1158680Y-720950D01*
X-1156740Y-731440D01*
X-1150890Y-738000D01*
X-1144080Y-741940D01*
X-1119740D01*
G01X-1144080D02*
X-1158680Y-780000D01*
G01X-1201400Y-770820D02*
X-1208210Y-777380D01*
X-1216000Y-780000D01*
X-1223790Y-777380D01*
X-1230610Y-769500D01*
X-1235480Y-757690D01*
X-1237420Y-745880D01*
Y-731440D01*
X-1235480Y-719630D01*
X-1230610Y-709130D01*
X-1224770Y-703880D01*
X-1217950Y-701260D01*
X-1210160Y-703880D01*
X-1204320Y-709130D01*
X-1200420Y-717010D01*
X-1198480Y-727510D01*
X-1200420Y-736690D01*
X-1205290Y-745880D01*
X-1211130Y-751130D01*
X-1217950Y-752440D01*
X-1225740Y-749820D01*
X-1231580Y-743260D01*
X-1237420Y-731440D01*
G01X-850000Y-700000D02*
X-1070000D01*
Y-800000D01*
X-850000D01*
Y-700000D01*
G01X-1362180Y309370D02*
X-1366120Y315210D01*
X-1368740Y322030D01*
Y329820D01*
X-1364800Y338580D01*
X-1358240Y345390D01*
X-1350370Y350260D01*
X-1337240Y354160D01*
X-1325430Y355130D01*
X-1313620Y353180D01*
X-1305750Y350260D01*
X-1297870Y344420D01*
X-1292620Y337610D01*
X-1290000Y330790D01*
Y323970D01*
X-1292620Y317160D01*
X-1296560Y311320D01*
X-1301810Y306450D01*
G01X-1290000Y254000D02*
X-1307060Y252050D01*
X-1321490Y249130D01*
X-1334620Y245230D01*
X-1349050Y240370D01*
X-1368740Y232580D01*
Y271520D01*
G01X-1270000Y-20000D02*
Y200000D01*
X-1370000D01*
Y-20000D01*
X-1270000D01*
G01X-1182180Y309370D02*
X-1186120Y315210D01*
X-1188740Y322030D01*
Y329820D01*
X-1184800Y338580D01*
X-1178240Y345390D01*
X-1170370Y350260D01*
X-1157240Y354160D01*
X-1145430Y355130D01*
X-1133620Y353180D01*
X-1125750Y350260D01*
X-1117870Y344420D01*
X-1112620Y337610D01*
X-1110000Y330790D01*
Y323970D01*
X-1112620Y317160D01*
X-1116560Y311320D01*
X-1121810Y306450D01*
G01X-1142810Y270550D02*
X-1152000Y263730D01*
X-1157240Y257890D01*
X-1159870Y250100D01*
X-1157240Y243290D01*
X-1152000Y238420D01*
X-1144120Y234520D01*
X-1134930Y233550D01*
X-1127060Y234520D01*
X-1119180Y238420D01*
X-1112620Y244260D01*
X-1110000Y251080D01*
X-1112620Y258870D01*
X-1120500Y265680D01*
X-1132310Y269580D01*
X-1145430Y270550D01*
X-1162490Y268600D01*
X-1171680Y265680D01*
X-1180870Y260810D01*
X-1187430Y254000D01*
X-1188740Y247180D01*
X-1186120Y240370D01*
X-1179550Y235500D01*
G01X-1120000Y-20000D02*
Y200000D01*
X-1220000D01*
Y-20000D01*
X-1120000D01*
G01X-369740Y-810000D02*
Y-731260D01*
X-394080D01*
X-401870Y-735200D01*
X-406740Y-740450D01*
X-408680Y-750950D01*
X-406740Y-761440D01*
X-400890Y-768000D01*
X-394080Y-771940D01*
X-369740D01*
G01X-394080D02*
X-408680Y-810000D01*
G01X-449450Y-777190D02*
X-456270Y-768000D01*
X-462110Y-762760D01*
X-469900Y-760130D01*
X-476710Y-762760D01*
X-481580Y-768000D01*
X-485480Y-775880D01*
X-486450Y-785070D01*
X-485480Y-792940D01*
X-481580Y-800820D01*
X-475740Y-807380D01*
X-468920Y-810000D01*
X-461130Y-807380D01*
X-454320Y-799500D01*
X-450420Y-787690D01*
X-449450Y-774570D01*
X-451400Y-757510D01*
X-454320Y-748320D01*
X-459190Y-739130D01*
X-466000Y-732570D01*
X-472820Y-731260D01*
X-479630Y-733880D01*
X-484500Y-740450D01*
G01X-550000Y-700000D02*
X-770000D01*
Y-800000D01*
X-550000D01*
Y-700000D01*
G01X-189740Y1778740D02*
Y1700000D01*
X-228680D01*
G01X-287950D02*
Y1778740D01*
X-276270Y1762990D01*
G01Y1700000D02*
X-299630D01*
G01X-130000Y1640000D02*
X-350000D01*
Y1540000D01*
X-130000D01*
Y1640000D01*
G01X392210Y-131260D02*
Y-187690D01*
X388320Y-199500D01*
X380530Y-207380D01*
X370790Y-210000D01*
X361050Y-207380D01*
X353260Y-199500D01*
X349370Y-187690D01*
Y-131260D01*
G01X313470Y-194250D02*
X307630Y-203440D01*
X299840Y-208690D01*
X291080Y-210000D01*
X283290Y-208690D01*
X275500Y-202130D01*
X270630Y-194250D01*
X269660Y-186380D01*
X271600Y-177190D01*
X278420Y-170630D01*
X285230Y-168000D01*
X294000D01*
G01X285230D02*
X279390Y-164070D01*
X274520Y-157510D01*
X272580Y-149630D01*
X274520Y-141760D01*
X279390Y-135200D01*
X288160Y-131260D01*
X296920Y-132570D01*
X305680Y-137820D01*
G01X630000Y620260D02*
X551260D01*
Y595920D01*
X555200Y588130D01*
X560450Y583260D01*
X570950Y581320D01*
X581440Y583260D01*
X588000Y589110D01*
X591940Y595920D01*
Y620260D01*
G01Y595920D02*
X630000Y581320D01*
G01Y510370D02*
X551260D01*
X607690Y546390D01*
Y497710D01*
G01X655000Y690000D02*
Y910000D01*
X555000D01*
Y690000D01*
X655000D01*
G01X230260Y1800000D02*
Y1878740D01*
X205920D01*
X198130Y1874800D01*
X193260Y1869550D01*
X191320Y1859050D01*
X193260Y1848560D01*
X199110Y1842000D01*
X205920Y1838060D01*
X230260D01*
G01X205920D02*
X191320Y1800000D01*
G01X132050D02*
X125230Y1801310D01*
X117450Y1805250D01*
X112580Y1811810D01*
X110630Y1821000D01*
X112580Y1830180D01*
X118420Y1838060D01*
X127180Y1842000D01*
X136920D01*
X142760Y1844620D01*
X147630Y1851180D01*
X149580Y1860370D01*
X146650Y1869550D01*
X139840Y1876120D01*
X132050Y1878740D01*
X124260Y1876120D01*
X117450Y1869550D01*
X114520Y1860370D01*
X116470Y1851180D01*
X121340Y1844620D01*
X127180Y1842000D01*
X136920D01*
X145680Y1838060D01*
X151520Y1830180D01*
X153470Y1821000D01*
X151520Y1811810D01*
X146650Y1805250D01*
X138870Y1801310D01*
X132050Y1800000D01*
G01X30000Y1660000D02*
X250000D01*
Y1760000D01*
X30000D01*
Y1660000D01*
G01X489370Y1872180D02*
X495210Y1876120D01*
X502030Y1878740D01*
X509820D01*
X518580Y1874800D01*
X525390Y1868240D01*
X530260Y1860370D01*
X534160Y1847240D01*
X535130Y1835430D01*
X533180Y1823620D01*
X530260Y1815750D01*
X524420Y1807870D01*
X517610Y1802620D01*
X510790Y1800000D01*
X503970D01*
X497160Y1802620D01*
X491320Y1806560D01*
X486450Y1811810D01*
G01X432050Y1800000D02*
X425230Y1801310D01*
X417450Y1805250D01*
X412580Y1811810D01*
X410630Y1821000D01*
X412580Y1830180D01*
X418420Y1838060D01*
X427180Y1842000D01*
X436920D01*
X442760Y1844620D01*
X447630Y1851180D01*
X449580Y1860370D01*
X446650Y1869550D01*
X439840Y1876120D01*
X432050Y1878740D01*
X424260Y1876120D01*
X417450Y1869550D01*
X414520Y1860370D01*
X416470Y1851180D01*
X421340Y1844620D01*
X427180Y1842000D01*
X436920D01*
X445680Y1838060D01*
X451520Y1830180D01*
X453470Y1821000D01*
X451520Y1811810D01*
X446650Y1805250D01*
X438870Y1801310D01*
X432050Y1800000D01*
G01X300000Y1660000D02*
X520000D01*
Y1760000D01*
X300000D01*
Y1660000D01*
G01X840000Y530260D02*
X761260D01*
Y505920D01*
X765200Y498130D01*
X770450Y493260D01*
X780950Y491320D01*
X791440Y493260D01*
X798000Y499110D01*
X801940Y505920D01*
Y530260D01*
G01Y505920D02*
X840000Y491320D01*
G01X824250Y453470D02*
X833440Y447630D01*
X838690Y439840D01*
X840000Y431080D01*
X838690Y423290D01*
X832130Y415500D01*
X824250Y410630D01*
X816380Y409660D01*
X807190Y411600D01*
X800630Y418420D01*
X798000Y425230D01*
Y434000D01*
G01Y425230D02*
X794070Y419390D01*
X787510Y414520D01*
X779630Y412580D01*
X771760Y414520D01*
X765200Y419390D01*
X761260Y428160D01*
X762570Y436920D01*
X767820Y445680D01*
G01X730000Y805000D02*
Y585000D01*
X830000D01*
Y805000D01*
X730000D01*
G01X1208460Y756100D02*
X1203170Y761510D01*
X1200000Y767610D01*
Y773030D01*
X1203170Y778450D01*
X1208460Y782510D01*
X1215880Y784540D01*
X1223280Y783190D01*
X1229630Y779800D01*
X1233870Y773710D01*
X1235980Y765580D01*
X1240220Y760840D01*
X1247620Y758800D01*
X1255030Y760160D01*
X1260320Y763550D01*
X1263500Y768290D01*
Y773030D01*
X1261380Y777770D01*
X1256090Y781840D01*
G01X1263500Y805880D02*
X1200000Y815360D01*
X1263500Y826200D01*
X1200000Y837040D01*
X1263500Y846520D01*
G01X1200000Y882080D02*
X1263500D01*
X1250800Y873950D01*
G01X1200000D02*
Y890210D01*
G01X1045130Y1890000D02*
X1020790Y1968740D01*
X996450Y1890000D01*
G01X1005210Y1917560D02*
X1036370D01*
G01X964440Y1890000D02*
Y1968740D01*
X919660Y1890000D01*
Y1968740D01*
G01X863310Y1890000D02*
Y1968740D01*
X874990Y1952990D01*
G01Y1890000D02*
X851630D01*
G54D14*
G01X-3820920Y896200D02*
X-4148580D01*
Y469480D01*
X-3820920D01*
Y896200D01*
G01X-884000Y-383000D02*
X640000D01*
Y-637000D01*
X-884000D01*
Y-383000D01*
G01X1080000Y925200D02*
X1265420D01*
Y1534800D01*
X894580D01*
Y925200D01*
X1080000D01*
M02*
