G04 ================== begin FILE IDENTIFICATION RECORD ==================*
G04 Layout Name:  C:/DATA/GIT/CADENCE/MODULES/ZWAVE_SWITCHV2/allegro/ZWAVE_SWITCHV2.brd*
G04 Film Name:    SC_TOP*
G04 File Format:  Gerber RS274X*
G04 File Origin:  Cadence Allegro 17.2-P019*
G04 Origin Date:  Tue Jun 20 23:39:54 2017*
G04 *
G04 Layer:  REF DES/SILKSCREEN_TOP*
G04 Layer:  PACKAGE GEOMETRY/SILKSCREEN_TOP*
G04 Layer:  BOARD GEOMETRY/SILKSCREEN_TOP*
G04 Layer:  BOARD GEOMETRY/DESIGN_OUTLINE*
G04 *
G04 Offset:    (0.0000 0.0000)*
G04 Mirror:    No*
G04 Mode:      Positive*
G04 Rotation:  0*
G04 FullContactRelief:  No*
G04 UndefLineWidth:     0.0000*
G04 ================== end FILE IDENTIFICATION RECORD ====================*
%FSLAX25Y25*MOMM*%
%IR0*IPPOS*OFA0.00000B0.00000*MIA0B0*SFA1.00000B1.00000*%
%ADD10C,.1*%
%ADD11C,.15*%
%ADD12C,.254*%
G75*
%LPD*%
G75*
G36*
G01X-1853940Y220000D02*
G03I-36060J0D01*
G37*
G54D10*
G01X-260000Y880000D02*
X-890000D01*
Y550000D01*
X-260000D01*
Y880000D01*
G54D11*
G01X934000Y-1550000D02*
X-4166000D01*
Y-350000D01*
X934000D01*
Y-1550000D01*
G01X-4410000Y50000D02*
Y-140000D01*
X-4230000D01*
G01X-4410000Y1520000D02*
Y1770000D01*
X-4160000D01*
G01X-765000Y-1550000D02*
Y-350000D01*
X-1615000D01*
Y-1550000D01*
X-2465000D01*
Y-350000D01*
X-3315000D01*
Y-1550000D01*
G01X-2808740Y-140260D02*
X-2730000D01*
Y-101320D01*
G01X-2740500Y-62500D02*
X-2733940Y-54710D01*
X-2730000Y-45940D01*
Y-38160D01*
X-2733940Y-30370D01*
X-2740500Y-24520D01*
X-2749690Y-21600D01*
X-2758870Y-23550D01*
X-2766740Y-28420D01*
X-2772000Y-37180D01*
X-2774620Y-48870D01*
X-2779870Y-55680D01*
X-2789050Y-58600D01*
X-2798240Y-56650D01*
X-2804800Y-51790D01*
X-2808740Y-44970D01*
Y-38160D01*
X-2806120Y-31340D01*
X-2799550Y-25500D01*
G01X-2730000Y36690D02*
X-2808740D01*
X-2792990Y25010D01*
G01X-2730000D02*
Y48370D01*
G01X-2850000Y20000D02*
Y-140000D01*
X-3020000D01*
G01X-2850000Y1600000D02*
Y1770000D01*
X-3030000D01*
G01X-1710000Y1800000D02*
X1297000D01*
Y-200000D01*
X-1710000D01*
Y1800000D01*
G01X-2070000Y-189740D02*
X-1991260D01*
Y-214080D01*
X-1995200Y-221870D01*
X-2000450Y-226740D01*
X-2010950Y-228680D01*
X-2021440Y-226740D01*
X-2028000Y-220890D01*
X-2031940Y-214080D01*
Y-189740D01*
G01Y-214080D02*
X-2070000Y-228680D01*
G01Y-286000D02*
X-2052940Y-287950D01*
X-2038510Y-290870D01*
X-2025380Y-294770D01*
X-2010950Y-299630D01*
X-1991260Y-307420D01*
Y-268480D01*
G01X-1940000Y-320000D02*
Y-100000D01*
X-1840000D01*
Y-320000D01*
X-1940000D01*
G01X-2010000Y-22210D02*
X-2088740D01*
Y-2740D01*
X-2084800Y5050D01*
X-2079550Y10890D01*
X-2071680Y15760D01*
X-2062490Y19660D01*
X-2049370Y20630D01*
X-2036250Y19660D01*
X-2027060Y15760D01*
X-2019180Y10890D01*
X-2013940Y5050D01*
X-2010000Y-2740D01*
Y-22210D01*
G01Y77950D02*
X-2088740D01*
X-2072990Y66270D01*
G01X-2010000D02*
Y89630D01*
G01X-1840000Y170000D02*
Y-50000D01*
X-1940000D01*
Y170000D01*
X-1840000D01*
G01X-890260Y-314250D02*
X-885390Y-322130D01*
X-879550Y-327380D01*
X-872740Y-330000D01*
X-864950Y-327380D01*
X-859110Y-322130D01*
X-853260Y-314250D01*
X-851320Y-303750D01*
Y-251260D01*
G01X-813470Y-314250D02*
X-807630Y-323440D01*
X-799840Y-328690D01*
X-791080Y-330000D01*
X-783290Y-328690D01*
X-775500Y-322130D01*
X-770630Y-314250D01*
X-769660Y-306380D01*
X-771600Y-297190D01*
X-778420Y-290630D01*
X-785230Y-288000D01*
X-794000D01*
G01X-785230D02*
X-779390Y-284070D01*
X-774520Y-277510D01*
X-772580Y-269630D01*
X-774520Y-261760D01*
X-779390Y-255200D01*
X-788160Y-251260D01*
X-796920Y-252570D01*
X-805680Y-257820D01*
G01X-787790Y401260D02*
Y457690D01*
X-791680Y469500D01*
X-799470Y477380D01*
X-809210Y480000D01*
X-818950Y477380D01*
X-826740Y469500D01*
X-830630Y457690D01*
Y401260D01*
G01X-887950Y480000D02*
Y401260D01*
X-876270Y417010D01*
G01Y480000D02*
X-899630D01*
G01X-680000Y1460000D02*
X-460000D01*
Y1360000D01*
X-680000D01*
Y1460000D01*
G01X-266110Y1820000D02*
Y1898740D01*
X-240790Y1833120D01*
X-215470Y1898740D01*
Y1820000D01*
G01X-162050D02*
Y1898740D01*
X-173730Y1882990D01*
G01Y1820000D02*
X-150370D01*
G01X-639370Y1572180D02*
X-645210Y1576120D01*
X-652030Y1578740D01*
X-659820D01*
X-668580Y1574800D01*
X-675390Y1568240D01*
X-680260Y1560370D01*
X-684160Y1547240D01*
X-685130Y1535430D01*
X-683180Y1523620D01*
X-680260Y1515750D01*
X-674420Y1507870D01*
X-667610Y1502620D01*
X-660790Y1500000D01*
X-653970D01*
X-647160Y1502620D01*
X-641320Y1506560D01*
X-636450Y1511810D01*
G01X-603470Y1515750D02*
X-597630Y1506560D01*
X-589840Y1501310D01*
X-581080Y1500000D01*
X-573290Y1501310D01*
X-565500Y1507870D01*
X-560630Y1515750D01*
X-559660Y1523620D01*
X-561600Y1532810D01*
X-568420Y1539370D01*
X-575230Y1542000D01*
X-584000D01*
G01X-575230D02*
X-569390Y1545930D01*
X-564520Y1552490D01*
X-562580Y1560370D01*
X-564520Y1568240D01*
X-569390Y1574800D01*
X-578160Y1578740D01*
X-586920Y1577430D01*
X-595680Y1572180D01*
G01X85000Y-1550000D02*
Y-350000D01*
G01X975750Y-1109740D02*
X967870Y-1114610D01*
X962620Y-1120450D01*
X960000Y-1127260D01*
X962620Y-1135050D01*
X967870Y-1140890D01*
X975750Y-1146740D01*
X986250Y-1148680D01*
X1038740D01*
G01X971810Y-1186530D02*
X965250Y-1192370D01*
X961310Y-1199190D01*
X960000Y-1207950D01*
X962620Y-1216710D01*
X967870Y-1223530D01*
X977060Y-1228400D01*
X987560Y-1229370D01*
X998060Y-1227420D01*
X1004620Y-1222550D01*
X1009870Y-1215740D01*
X1011180Y-1208920D01*
X1009870Y-1202110D01*
X1004620Y-1193350D01*
X1038740Y-1196270D01*
Y-1222550D01*
G54D12*
G01X-884000Y-383000D02*
X640000D01*
Y-637000D01*
X-884000D01*
Y-383000D01*
M02*
