G04 ================== begin FILE IDENTIFICATION RECORD ==================*
G04 Layout Name:  C:/DATA/GIT/CADENCE/MODULES/ZWAVE_SWITCHV2/allegro/ZWAVE_SWITCHV2.brd*
G04 Film Name:    SM_TOP*
G04 File Format:  Gerber RS274X*
G04 File Origin:  Cadence Allegro 17.2-P019*
G04 Origin Date:  Tue Jun 20 23:39:54 2017*
G04 *
G04 Layer:  PIN/SOLDERMASK_TOP*
G04 Layer:  PACKAGE GEOMETRY/SOLDERMASK_TOP*
G04 Layer:  BOARD GEOMETRY/SOLDERMASK_TOP*
G04 *
G04 Offset:    (0.0000 0.0000)*
G04 Mirror:    No*
G04 Mode:      Positive*
G04 Rotation:  0*
G04 FullContactRelief:  No*
G04 UndefLineWidth:     0.0000*
G04 ================== end FILE IDENTIFICATION RECORD ====================*
%FSLAX25Y25*MOMM*%
%IR0*IPPOS*OFA0.00000B0.00000*MIA0B0*SFA1.00000B1.00000*%
%ADD12R,1.02X.74*%
%ADD17R,.74X1.02*%
%ADD15R,1.1501X2.35*%
%ADD10C,3.5*%
%ADD14R,2.X2.*%
%ADD16R,3.4501X2.35*%
%ADD18R,3.5X3.5*%
%ADD11C,3.5999*%
%ADD13C,1.8999*%
G75*
%LPD*%
G75*
G36*
G01X-4485000Y3050000D02*
Y1835000D01*
X1320000D01*
Y3050000D01*
X-4485000D01*
G37*
G36*
G01X-3875000Y-1380000D02*
Y-380000D01*
X-3765000Y-270000D01*
Y-15000D01*
X-3770000Y-10000D01*
Y30000D01*
X-3700000Y100000D01*
X-3570000D01*
X-3495000Y25000D01*
Y-365000D01*
X-3610000Y-480000D01*
Y-1370000D01*
X-3680000Y-1440000D01*
X-3815000D01*
X-3875000Y-1380000D01*
G37*
G36*
G01X-3020000Y-1375000D02*
Y-710000D01*
X-2500000Y-190000D01*
Y1035000D01*
X-2760000Y1295000D01*
X-3050000D01*
X-3100000Y1345000D01*
Y1500000D01*
X-3045000Y1555000D01*
X-2665000D01*
X-2240000Y1130000D01*
Y-295000D01*
X-2765000Y-820000D01*
Y-1385000D01*
X-2835000Y-1455000D01*
X-2940000D01*
X-3020000Y-1375000D01*
G37*
G54D10*
X-3740000Y-1350000D03*
X-2890000D03*
X-2040000D03*
X-1190000D03*
X-340000D03*
G54D11*
X-4230000Y200000D03*
Y1420000D03*
X-3630000Y0D03*
X-3030000Y200000D03*
Y1420000D03*
G54D12*
X-1890000Y-125000D03*
Y-295000D03*
Y-15000D03*
Y135000D03*
G54D13*
X-1564000Y554000D03*
Y1062000D03*
Y1570000D03*
X-249000Y-510000D03*
X-503000D03*
X513000D03*
X259000D03*
X5000D03*
X1151000Y39000D03*
G54D14*
X-757000Y-510000D03*
X1151000Y547000D03*
G54D15*
X-809940Y1010070D03*
X-579940D03*
X-349940D03*
G54D16*
X-580000Y420000D03*
G54D17*
X-495000Y1410000D03*
X-645000D03*
G54D18*
X510000Y-1350000D03*
M02*
